<?xml version="1.0" standalone="no"?>
<!DOCTYPE svg PUBLIC "-//W3C//DTD SVG 20010904//EN"
 "http://www.w3.org/TR/2001/REC-SVG-20010904/DTD/svg10.dtd">
<svg version="1.0" xmlns="http://www.w3.org/2000/svg"
 width="570.000000pt" height="570.000000pt" viewBox="0 0 570.000000 570.000000"
 preserveAspectRatio="xMidYMid meet">

<g transform="translate(0.000000,570.000000) scale(0.100000,-0.100000)"
fill="#000000" stroke="none">
<path d="M1645 5020 c-4 -7 -3 -16 2 -21 12 -12 55 1 50 15 -5 15 -44 20 -52
6z"/>
<path d="M1720 5009 c0 -30 21 -48 53 -44 17 2 39 0 47 -6 12 -8 11 -10 -5 -8
-11 1 -27 -1 -37 -5 -9 -4 -30 -1 -47 9 -17 9 -31 11 -31 5 0 -6 -17 -9 -40
-7 -22 2 -40 0 -40 -4 0 -14 26 -26 57 -26 23 0 40 -8 60 -30 15 -16 45 -35
66 -42 40 -13 44 -20 25 -39 -7 -7 -8 -12 -2 -12 5 0 2 -5 -6 -10 -13 -8 -12
-11 3 -23 17 -11 17 -15 4 -26 -13 -10 -20 -5 -46 32 -41 59 -70 77 -128 76
-34 0 -42 -3 -28 -8 19 -8 19 -8 -3 -20 -12 -6 -22 -21 -22 -33 0 -15 3 -18
13 -10 8 7 18 7 27 2 12 -8 12 -10 -3 -16 -25 -9 -21 -21 14 -33 17 -6 28 -15
24 -21 -9 -14 -37 -13 -60 4 -17 11 -24 11 -45 -3 -14 -9 -26 -22 -27 -29 -4
-17 7 -15 29 5 14 13 21 14 30 5 9 -9 9 -12 -2 -12 -11 -1 -10 -5 4 -15 20
-15 20 -15 0 -30 -10 -8 -27 -15 -37 -15 -10 0 -15 -4 -12 -10 12 -19 -9 -10
-37 17 -37 36 -36 10 1 -28 31 -31 31 -35 0 -19 -24 13 -24 9 1 -35 19 -34 19
-36 3 -33 -10 2 -18 10 -19 18 0 8 -8 33 -19 55 -10 22 -19 63 -21 90 -5 65
-10 96 -19 118 -4 10 -1 27 9 42 9 13 16 31 16 40 0 8 22 37 48 64 32 33 46
54 41 63 -6 9 -12 8 -27 -5 -10 -9 -25 -17 -33 -17 -8 0 -29 -22 -48 -49 -33
-49 -33 -50 -28 -138 3 -48 11 -115 17 -148 6 -33 12 -70 14 -82 2 -12 11 -33
20 -47 9 -14 16 -32 16 -41 0 -8 6 -15 13 -15 6 0 23 -16 36 -36 25 -36 57
-55 89 -53 11 0 13 2 4 6 -18 7 4 33 29 33 11 0 19 7 19 15 0 8 9 15 20 15 11
0 20 5 20 11 0 6 7 9 15 5 9 -3 15 0 15 8 0 8 12 22 28 32 15 9 34 26 43 36 9
10 24 18 33 18 9 0 16 4 16 9 0 5 12 11 28 13 20 2 27 8 25 23 -1 11 4 23 10
27 8 5 5 13 -8 28 -19 21 -19 21 16 18 25 -2 34 1 34 12 0 8 8 18 18 22 9 4
17 14 17 23 0 8 7 15 16 15 10 0 14 6 11 14 -6 16 85 60 116 57 10 -1 17 4 17
13 0 19 36 22 43 4 7 -24 125 -13 184 16 29 14 59 26 66 26 7 0 17 4 23 9 5 5
18 12 29 15 11 3 -7 3 -40 0 -104 -9 -179 -16 -208 -18 -15 -2 -30 -6 -34 -9
-11 -12 -57 -8 -85 7 -26 14 -28 14 -28 -7 -1 -21 -1 -21 -23 5 -58 69 -377
186 -377 137z m76 -104 c4 -8 10 -12 15 -9 11 7 61 -31 52 -40 -3 -3 -2 -6 3
-6 6 0 15 5 22 12 9 9 15 9 24 0 9 -9 7 -12 -9 -12 -12 0 -25 -4 -28 -10 -3
-5 -11 -10 -16 -10 -6 0 -8 4 -4 9 7 12 -34 41 -57 41 -10 0 -18 2 -18 4 0 2
-3 11 -6 20 -3 9 -1 16 5 16 7 0 14 -7 17 -15z m94 -17 c0 -13 -23 -5 -28 10
-2 7 2 10 12 6 9 -3 16 -11 16 -16z m-170 -74 c14 -8 17 -13 8 -10 -24 7 -23
-6 2 -22 11 -7 20 -20 20 -29 0 -14 -2 -14 -21 3 -11 10 -26 19 -32 19 -18 1
-67 27 -67 36 0 21 57 23 90 3z m-106 -246 c7 -37 3 -44 -15 -25 -8 7 -20 12
-27 9 -6 -2 -12 1 -12 6 0 6 9 14 20 17 11 4 18 11 15 16 -4 5 -2 9 3 9 5 0
12 -14 16 -32z"/>
<path d="M2585 4984 c-38 -8 -78 -16 -87 -17 -10 -1 -18 -7 -18 -15 0 -9 10
-11 33 -8 119 18 437 32 437 19 0 -9 112 -38 139 -36 20 2 171 -41 211 -60 19
-9 61 -23 93 -31 31 -8 61 -17 65 -20 4 -2 14 0 22 5 13 8 12 12 -4 24 -11 8
-28 15 -37 15 -10 0 -20 4 -24 9 -6 11 -106 46 -119 43 -5 -2 -12 1 -15 5 -9
13 -84 33 -123 33 -19 0 -38 3 -42 7 -7 8 -29 13 -66 17 -14 1 -32 6 -39 10
-26 16 -351 16 -426 0z"/>
<path d="M2401 4944 c-71 -15 -89 -24 -45 -24 33 1 103 15 111 24 13 13 -5 13
-66 0z"/>
<path d="M1580 4930 c-8 -5 -12 -11 -10 -14 3 -2 14 2 24 10 22 15 10 19 -14
4z"/>
<path d="M2835 4935 c-5 -1 -37 -11 -70 -20 -33 -10 -69 -24 -80 -31 -11 -7
-45 -18 -75 -25 -30 -6 -60 -16 -67 -21 -7 -5 -17 -7 -22 -4 -5 4 -12 2 -16
-4 -3 -5 -16 -10 -28 -10 -12 0 -39 -11 -59 -25 -20 -14 -42 -25 -47 -25 -6 0
-11 -4 -11 -10 0 -5 -6 -7 -13 -5 -7 3 -18 -8 -25 -25 -8 -17 -17 -28 -22 -25
-9 6 -22 -23 -15 -35 10 -16 -39 -19 -57 -3 -20 18 -23 33 -8 33 6 0 18 8 29
19 18 18 17 18 -20 18 -22 0 -39 -4 -39 -9 0 -5 -5 -6 -11 -2 -6 3 -23 -7 -38
-22 -15 -16 -51 -50 -80 -77 -57 -51 -58 -56 -6 -99 26 -23 35 -22 35 2 0 27
33 89 47 90 6 0 13 10 15 23 2 15 9 21 22 19 11 -2 15 1 11 7 -11 18 7 12 30
-9 l22 -21 -28 -30 c-35 -37 -36 -49 -8 -49 18 0 19 2 9 15 -10 12 -9 15 8 15
11 0 23 7 26 16 3 8 11 12 17 8 6 -3 14 -2 18 3 3 6 31 25 61 43 30 18 86 53
124 78 l69 44 96 -1 c54 -1 98 -7 102 -13 4 -7 8 -6 12 3 4 10 6 8 6 -4 1 -10
-9 -21 -22 -26 -35 -13 -110 -92 -99 -103 8 -8 59 -16 116 -17 25 -1 27 -4 22
-25 -4 -15 -1 -26 7 -29 6 -3 2 -6 -10 -6 -12 -1 -24 5 -26 12 -4 7 -6 6 -6
-4 -1 -18 -25 -41 -47 -46 -8 -2 -20 -4 -27 -6 -6 -1 -23 -10 -37 -20 -13 -9
-28 -17 -32 -17 -15 0 -8 27 12 45 34 30 3 35 -48 8 -66 -35 -79 -49 -80 -88
l-1 -35 30 22 c17 13 37 34 44 48 11 21 14 22 20 8 4 -10 -1 -24 -14 -37 -27
-27 -29 -73 -3 -64 9 3 25 13 35 21 14 13 17 13 17 1 1 -10 5 -8 15 5 8 11 18
17 21 13 4 -3 -8 -18 -25 -32 -17 -15 -31 -33 -31 -41 0 -8 -6 -11 -15 -8 -8
4 -15 1 -15 -5 0 -6 -8 -19 -17 -29 -24 -23 -53 -69 -53 -82 0 -16 36 -12 52
8 9 9 19 32 23 50 4 22 16 37 35 47 38 20 43 19 30 -5 -6 -11 -11 -36 -12 -55
-1 -20 -5 -38 -9 -40 -9 -6 1 -45 12 -45 5 0 9 5 9 10 0 6 7 10 15 10 17 0 19
9 6 43 -8 21 -5 29 20 53 22 21 29 24 29 11 0 -8 -4 -18 -9 -21 -12 -8 -9 -68
4 -73 6 -1 19 11 30 27 20 30 35 39 35 21 0 -6 -5 -13 -10 -16 -6 -4 -8 -11
-5 -16 4 -5 0 -9 -8 -9 -16 0 -12 -45 6 -67 13 -18 37 -16 37 2 0 8 5 15 11
15 5 0 17 16 24 35 12 27 13 39 3 60 -8 17 -8 29 -2 33 6 4 11 30 13 57 1 32
8 54 19 63 25 19 32 15 26 -16 -5 -24 -1 -30 28 -45 26 -14 28 -17 8 -13 -30
6 -60 -19 -59 -48 1 -18 2 -18 6 -3 7 27 26 15 35 -21 10 -36 22 -40 38 -14
11 16 11 16 6 0 -3 -10 -1 -20 4 -23 13 -8 13 -62 0 -70 -5 -3 -10 -16 -10
-28 1 -20 2 -21 14 -4 18 24 23 22 31 -14 5 -20 3 -35 -5 -42 -10 -9 -12 -7
-7 10 3 13 2 25 -3 28 -4 2 -12 -21 -19 -52 -14 -69 -14 -83 -1 -83 6 0 10 16
10 36 0 31 3 36 20 31 19 -5 20 0 20 69 0 47 -4 74 -11 74 -7 0 -8 7 -4 18 21
49 22 87 2 110 l-20 22 31 0 c43 0 49 17 16 51 l-27 29 33 -10 c19 -5 37 -15
41 -22 6 -9 10 -8 15 5 9 24 -26 60 -82 87 -24 11 -44 26 -44 33 0 7 -5 5 -11
-5 -6 -10 -16 -15 -26 -11 -9 4 -19 -1 -25 -10 -17 -31 -27 -17 -25 36 2 43 7
57 24 71 17 13 21 13 17 2 -3 -8 -1 -17 5 -21 7 -3 11 2 11 14 0 27 62 46 71
22 5 -13 7 -11 13 7 9 28 -1 62 -19 62 -8 0 -18 6 -22 14 -4 8 -12 14 -18 14
-5 -1 -12 7 -14 17 -3 18 -2 18 23 2 14 -9 40 -17 57 -17 31 0 31 1 26 35 -7
41 2 44 34 10 13 -13 29 -25 36 -25 6 0 21 -12 32 -26 12 -15 21 -23 21 -19 0
5 10 -1 23 -12 20 -18 44 -31 65 -33 4 -1 14 -7 22 -13 33 -27 82 -48 96 -43
8 3 14 -1 14 -10 0 -8 4 -12 10 -9 27 17 -67 155 -106 155 -8 0 -14 5 -14 10
0 6 -9 10 -20 10 -11 0 -20 4 -20 10 0 5 -7 7 -15 4 -8 -4 -15 -2 -15 4 0 5
-55 20 -122 33 -109 21 -118 24 -83 30 22 4 45 5 51 2 28 -10 22 18 -8 39 -41
29 -160 70 -183 63z m-39 -204 c-8 -10 -12 -7 -18 15 -5 19 -3 31 5 36 16 10
27 -32 13 -51z m21 37 c-3 -8 -6 -5 -6 6 -1 11 2 17 5 13 3 -3 4 -12 1 -19z
m-22 -88 c-4 -12 -9 -19 -12 -17 -3 3 -2 15 2 27 4 12 9 19 12 17 3 -3 2 -15
-2 -27z m35 -70 c-6 -11 -13 -20 -16 -20 -2 0 0 9 6 20 6 11 13 20 16 20 2 0
0 -9 -6 -20z m-61 -333 c0 -27 -2 -29 -9 -12 -12 28 -12 57 0 50 6 -3 10 -21
9 -38z m-9 -98 c0 -11 -4 -17 -10 -14 -5 3 -10 15 -10 26 0 11 5 17 10 14 6
-3 10 -15 10 -26z"/>
<path d="M2286 4920 c-13 -4 -16 -9 -8 -14 7 -4 19 -3 28 2 21 12 5 22 -20 12z"/>
<path d="M1539 4891 c-24 -24 -35 -81 -15 -81 8 0 18 -9 21 -21 4 -11 9 -19
11 -16 2 2 -1 18 -7 35 -8 23 -8 41 0 64 13 37 11 41 -10 19z"/>
<path d="M3140 4855 c14 -8 35 -14 47 -15 12 0 25 -4 28 -10 3 -5 15 -10 26
-10 10 0 19 -7 19 -15 0 -8 6 -12 14 -9 7 3 20 -2 29 -10 9 -9 20 -16 24 -16
5 0 18 -8 29 -17 26 -24 60 -39 118 -53 41 -9 52 -9 65 4 14 14 13 18 -6 35
-25 24 -103 65 -123 66 -35 1 -100 18 -106 26 -3 6 -14 7 -25 4 -10 -4 -19 -2
-19 3 0 12 -70 32 -111 32 l-34 -1 25 -14z"/>
<path d="M3995 4860 c-3 -5 -1 -10 4 -10 6 0 11 5 11 10 0 6 -2 10 -4 10 -3 0
-8 -4 -11 -10z"/>
<path d="M4090 4841 c0 -6 5 -13 10 -16 6 -3 10 1 10 9 0 9 -4 16 -10 16 -5 0
-10 -4 -10 -9z"/>
<path d="M4133 4815 c-3 -9 -20 -22 -37 -30 -23 -10 -26 -14 -11 -14 11 -1 35
8 54 20 27 16 32 17 28 5 -4 -9 -2 -16 3 -16 6 0 10 -7 10 -15 0 -8 3 -15 8
-15 13 0 35 -63 38 -110 1 -25 4 -52 7 -60 11 -30 13 -80 5 -80 -5 0 -7 -9 -3
-19 3 -11 1 -22 -4 -25 -6 -4 -7 -13 -4 -22 3 -9 -4 -24 -16 -35 -11 -11 -21
-24 -21 -29 0 -14 -46 -60 -59 -60 -8 0 -7 5 3 16 15 14 20 28 17 47 0 4 3 7
9 7 15 0 12 30 -2 31 -7 0 -2 5 12 11 24 10 24 10 5 18 -11 5 -14 9 -7 9 6 1
11 4 10 9 -1 4 4 20 10 35 13 31 9 47 -14 47 -19 0 -18 19 1 26 23 9 -1 34
-32 34 -22 0 -24 -2 -12 -16 17 -20 24 -68 9 -59 -5 3 -13 -1 -16 -9 -9 -24
-24 -19 -24 8 0 14 -4 28 -10 31 -6 4 -10 -7 -10 -25 0 -17 -5 -40 -11 -51
-10 -20 -11 -20 -24 -2 -8 10 -15 26 -15 35 0 9 -5 20 -11 24 -19 11 -69 15
-69 4 0 -14 -89 -24 -113 -12 -21 10 -21 11 6 11 16 1 26 5 22 11 -4 6 8 10
27 11 l33 1 -32 10 c-43 14 -42 28 3 28 21 0 33 4 29 10 -3 6 0 10 8 10 33 0
74 -23 95 -53 l24 -32 -5 30 c-2 17 -8 39 -12 50 -7 16 -6 18 6 8 18 -18 42
-16 35 2 -7 18 2 18 34 0 26 -15 64 -21 44 -7 -17 11 -24 40 -11 46 7 2 -14 5
-45 5 -31 1 -59 -3 -63 -9 -3 -5 -12 -7 -20 -4 -8 3 -29 1 -47 -4 -56 -17
-100 -23 -93 -12 10 16 -4 11 -43 -15 -49 -33 -62 -32 -29 3 33 34 36 53 5 26
-37 -31 -66 -45 -73 -34 -8 13 4 32 16 24 5 -3 8 0 7 7 -2 8 13 17 35 23 20 5
37 13 37 18 0 8 -31 4 -82 -12 -17 -6 -28 -5 -28 1 0 5 4 9 9 9 4 0 24 13 42
30 19 16 48 34 64 39 17 5 38 12 49 16 18 8 18 7 1 -18 -9 -15 -23 -27 -31
-27 -7 0 -15 -4 -19 -9 -6 -11 40 0 71 17 10 5 37 13 59 16 25 4 46 15 54 28
10 16 10 19 0 12 -7 -4 -33 -11 -57 -14 -34 -6 -42 -4 -38 7 4 10 -1 12 -21 7
-22 -6 -25 -4 -20 10 4 9 4 16 2 16 -11 0 -175 -124 -175 -132 0 -4 -7 -8 -15
-8 -8 0 -22 -12 -31 -26 -15 -22 -15 -27 -3 -35 8 -5 10 -9 5 -9 -5 0 -4 -6 2
-12 6 -7 11 -17 11 -23 3 -26 14 -45 27 -45 13 0 18 -11 15 -36 -1 -7 10 -10
26 -7 22 4 25 2 13 -6 -13 -10 -13 -11 0 -11 12 -1 11 -4 -3 -15 -17 -12 -15
-14 25 -22 25 -6 42 -15 40 -21 -1 -7 9 -17 24 -22 14 -6 22 -14 19 -20 -3 -5
1 -10 9 -10 19 0 22 -20 4 -21 -7 0 -3 -5 10 -11 12 -6 22 -17 22 -24 0 -7 9
-16 20 -19 11 -3 20 -11 20 -16 0 -5 8 -9 18 -9 18 0 48 -38 44 -54 -3 -11 17
-26 35 -26 28 0 140 120 172 185 39 78 41 89 48 187 7 111 -9 171 -65 230 -48
51 -59 57 -69 33z m-283 -210 c0 -2 -10 -9 -22 -15 -22 -11 -22 -10 -4 4 21
17 26 19 26 11z m175 -116 c5 -14 1 -27 -10 -38 -17 -15 -17 -15 -12 2 4 9 2
17 -2 17 -5 0 -11 -6 -14 -12 -2 -7 -8 -10 -12 -6 -7 7 25 57 37 58 4 0 10
-10 13 -21z m105 -24 c-7 -8 -17 -15 -23 -15 -5 0 -2 9 8 20 21 23 35 19 15
-5z"/>
<path d="M1484 4745 c5 -11 9 -32 10 -47 1 -15 6 -32 12 -38 7 -7 10 2 8 29
-1 23 -9 48 -20 58 -17 17 -18 17 -10 -2z"/>
<path d="M4001 4747 c-6 -8 -29 -19 -51 -26 -48 -14 -53 -32 -7 -25 84 15 96
15 112 7 9 -5 30 -7 48 -4 l32 5 -43 10 c-24 6 -42 15 -42 20 2 9 -19 26 -31
26 -4 0 -12 -6 -18 -13z"/>
<path d="M3588 4724 c-6 -13 -7 -28 -2 -37 8 -13 16 -9 52 24 l42 40 -41 -3
c-31 -1 -44 -7 -51 -24z"/>
<path d="M3795 4720 c-3 -5 -1 -10 4 -10 6 0 11 5 11 10 0 6 -2 10 -4 10 -3 0
-8 -4 -11 -10z"/>
<path d="M2590 4700 c-14 -4 -41 -8 -61 -9 -20 -1 -39 -4 -43 -8 -4 -5 -11 -8
-14 -9 -32 -3 -97 -29 -113 -45 -10 -10 -19 -16 -19 -12 0 12 -42 -32 -56 -59
-14 -28 -14 -28 19 -28 18 0 42 7 53 15 10 8 28 15 40 15 11 0 24 4 30 8 5 5
30 16 55 26 25 9 70 39 100 66 54 49 55 55 9 40z"/>
<path d="M3904 4664 c-17 -14 -17 -15 -1 -10 10 3 28 6 38 6 11 0 17 5 14 10
-9 15 -28 12 -51 -6z"/>
<path d="M3014 4652 c-16 -10 -14 -44 2 -38 7 3 22 -6 33 -19 10 -14 23 -25
28 -25 6 0 22 -11 37 -25 15 -14 32 -25 37 -25 6 0 20 -5 32 -12 12 -7 50 -19
84 -28 59 -15 63 -15 68 1 6 19 -34 88 -52 89 -6 0 -24 13 -40 28 -28 29 -58
40 -123 48 -19 2 -48 6 -65 9 -16 2 -35 1 -41 -3z"/>
<path d="M3434 4625 c-5 -11 -1 -22 9 -30 9 -7 14 -15 10 -18 -3 -4 1 -7 11
-7 9 0 20 -8 23 -17 4 -10 17 -28 30 -40 13 -12 23 -27 23 -33 0 -5 7 -10 15
-10 9 0 12 -6 9 -15 -4 -9 0 -15 9 -15 17 0 31 -27 18 -34 -15 -9 -78 29 -73
44 3 10 -2 9 -14 -4 -12 -11 -15 -20 -8 -23 6 -2 9 -14 7 -27 -7 -35 16 -37
100 -9 55 18 74 29 70 39 -3 8 -10 14 -15 14 -6 0 -8 7 -4 15 3 9 -4 21 -19
31 -14 9 -25 22 -25 29 0 7 -10 19 -22 28 -13 8 -32 24 -44 35 -11 11 -31 23
-45 27 -13 4 -32 14 -41 23 -16 13 -18 13 -24 -3z"/>
<path d="M2000 4547 c0 -9 -5 -17 -11 -17 -6 0 -8 -7 -5 -16 6 -15 4 -15 -18
0 l-25 16 6 -37 c4 -25 3 -34 -5 -29 -6 3 -14 1 -17 -5 -4 -6 -18 -8 -34 -4
-25 6 -25 6 -6 -9 20 -15 20 -15 -4 -16 -18 0 -22 -4 -17 -17 4 -10 4 -14 0
-10 -4 4 -13 2 -21 -4 -9 -8 -17 -8 -26 0 -8 6 -17 8 -21 4 -4 -4 3 -15 16
-25 19 -15 20 -20 9 -27 -8 -5 -20 -7 -27 -4 -6 2 -15 0 -18 -6 -4 -6 -13 -8
-21 -4 -8 3 -15 1 -15 -4 0 -14 -32 -48 -52 -56 -11 -4 -15 -13 -11 -26 4 -14
-3 -24 -26 -35 -36 -19 -41 -31 -10 -21 15 5 19 4 15 -4 -4 -6 -14 -11 -22
-11 -17 0 -19 -17 -3 -22 7 -2 -2 -18 -20 -35 -30 -31 -30 -31 -6 -29 13 2 38
17 54 35 16 17 34 31 41 31 6 0 8 5 5 10 -3 6 1 13 9 16 9 3 16 12 16 20 0 19
40 54 63 54 16 0 17 3 7 15 -9 10 -9 15 -1 15 6 0 11 6 11 14 0 8 15 19 33 25
25 9 29 14 17 21 -13 8 -13 10 1 10 9 0 22 7 29 15 7 8 28 15 46 15 20 0 33 5
32 11 -2 6 6 16 17 22 11 7 24 18 28 25 5 7 20 17 33 22 32 12 30 20 -11 60
-26 25 -35 30 -35 17z"/>
<path d="M2157 4543 c-13 -12 -7 -23 13 -23 13 0 18 5 14 15 -7 16 -17 19 -27
8z"/>
<path d="M1864 4531 c3 -5 20 -11 37 -13 29 -5 30 -4 14 9 -21 14 -59 18 -51
4z"/>
<path d="M3007 4520 c-5 -20 42 -69 116 -122 25 -18 28 -18 33 -3 17 42 -72
136 -107 114 -24 -15 -37 -10 -32 11 3 11 3 20 0 20 -2 0 -7 -9 -10 -20z"/>
<path d="M2130 4510 c0 -5 5 -10 11 -10 5 0 7 5 4 10 -3 6 -8 10 -11 10 -2 0
-4 -4 -4 -10z"/>
<path d="M2410 4501 c-85 -24 -111 -47 -125 -110 -6 -27 -4 -32 6 -25 60 35
181 144 159 143 -8 -1 -26 -4 -40 -8z"/>
<path d="M3485 4470 c-3 -5 -1 -10 4 -10 6 0 11 5 11 10 0 6 -2 10 -4 10 -3 0
-8 -4 -11 -10z"/>
<path d="M2120 4461 c0 -5 7 -15 17 -22 15 -13 15 -12 4 9 -12 23 -21 28 -21
13z"/>
<path d="M2094 4442 c-5 -5 -28 -14 -51 -22 -25 -7 -43 -20 -46 -31 -3 -11
-16 -23 -29 -28 -12 -6 -19 -10 -14 -10 11 -1 -39 -41 -52 -41 -11 0 -55 -56
-65 -82 -3 -10 -2 -20 4 -24 6 -3 8 -13 5 -21 -8 -20 33 -13 59 10 28 26 55
40 55 29 0 -15 -26 -33 -35 -24 -5 4 -5 -1 -2 -10 4 -12 1 -18 -8 -18 -8 0
-15 -4 -15 -10 0 -5 4 -10 8 -10 5 0 9 -22 10 -48 1 -68 4 -75 32 -89 14 -6
19 -12 12 -12 -7 -1 -22 4 -33 9 -15 8 -24 6 -40 -9 -22 -20 -34 -87 -19 -106
5 -5 10 -20 12 -33 3 -21 6 -19 51 23 27 25 57 45 68 45 22 0 26 -18 4 -26
-11 -5 -12 -10 -2 -26 14 -23 83 -61 96 -53 5 2 11 -2 15 -10 3 -9 18 -15 37
-15 27 0 30 -2 19 -15 -13 -16 -35 -21 -26 -7 3 5 -18 9 -47 10 -28 0 -47 -2
-42 -6 6 -4 15 -16 21 -27 7 -12 20 -19 33 -17 11 2 21 -2 21 -8 0 -10 15 -8
58 7 6 3 12 0 12 -5 0 -6 -10 -12 -22 -14 -34 -5 -34 -28 0 -25 17 1 28 5 26
8 -2 4 8 7 21 7 28 0 55 18 55 37 0 7 7 18 15 25 23 19 19 23 -37 49 -29 13
-67 34 -85 47 -17 13 -38 24 -46 24 -19 0 -40 26 -32 40 3 5 14 10 24 10 9 0
23 6 29 12 10 10 18 6 38 -19 28 -36 126 -93 160 -93 27 0 33 -20 25 -85 -4
-28 -4 -63 -1 -79 5 -27 6 -27 21 -10 26 31 54 78 51 87 -1 4 14 24 34 43 27
24 38 44 40 69 1 19 -2 37 -7 41 -5 3 -9 -4 -9 -14 0 -11 -9 -22 -20 -25 -14
-4 -23 3 -35 26 -8 16 -15 38 -15 48 0 10 -5 31 -11 46 -6 15 -16 39 -21 53
-20 52 -33 74 -47 78 -9 3 -11 0 -6 -8 5 -7 9 -26 10 -42 3 -29 3 -29 -64 -33
-39 -3 -63 -13 -56 -24 16 -27 -99 -38 -129 -12 -10 9 -20 15 -22 14 -19 -12
-77 58 -68 82 3 7 1 16 -4 19 -5 3 -8 26 -6 50 2 25 0 48 -6 51 -11 7 -2 57
12 66 5 3 10 16 11 27 1 12 7 22 15 22 21 0 65 29 85 56 17 23 17 25 -1 44
-10 11 -22 16 -28 12z m274 -469 c-10 -2 -26 -2 -35 0 -10 3 -2 5 17 5 19 0
27 -2 18 -5z m-100 -28 c42 -29 65 -31 106 -10 35 18 42 14 24 -14 -17 -27
-41 -35 -84 -27 -33 7 -94 50 -94 67 0 14 8 11 48 -16z"/>
<path d="M3214 4402 c-8 -12 -9 -24 -2 -36 7 -12 7 -21 -1 -29 -16 -16 -13
-54 5 -61 27 -10 34 -7 45 20 l10 27 22 -22 c24 -21 52 -28 61 -13 8 13 -34
92 -58 107 -38 25 -70 28 -82 7z"/>
<path d="M3750 4413 c1 -13 27 -43 37 -43 6 0 16 -7 23 -15 7 -8 18 -15 26
-15 7 0 -4 18 -26 40 -36 37 -60 50 -60 33z"/>
<path d="M3650 4387 c-25 -10 -25 -10 -2 -14 12 -3 22 -11 22 -19 0 -9 10 -14
28 -14 l27 1 -24 13 c-15 8 -19 15 -11 18 9 3 9 6 -1 15 -10 8 -21 8 -39 0z"/>
<path d="M1570 4355 c0 -17 2 -18 24 -9 18 7 12 24 -10 24 -8 0 -14 -7 -14
-15z"/>
<path d="M3557 4357 c-45 -15 -30 -63 17 -51 33 8 36 14 22 40 -9 17 -16 19
-39 11z"/>
<path d="M1710 4335 c0 -8 4 -15 8 -15 5 0 9 7 9 15 0 8 -4 15 -9 15 -4 0 -8
-7 -8 -15z"/>
<path d="M2352 4332 c4 -12 3 -22 -2 -22 -4 0 -6 -10 -5 -22 1 -13 3 -31 4
-41 0 -10 5 -16 10 -12 13 7 10 104 -2 112 -6 4 -8 -3 -5 -15z"/>
<path d="M3020 4343 c0 -5 7 -17 15 -27 8 -11 15 -28 15 -37 0 -10 5 -19 12
-21 8 -3 5 -16 -10 -40 -15 -23 -19 -39 -12 -43 6 -3 8 -11 4 -16 -3 -5 0 -16
6 -24 9 -11 9 -15 1 -15 -6 0 -11 4 -11 8 0 4 -9 8 -20 8 -13 0 -19 -5 -16
-13 3 -7 2 -13 -2 -13 -4 0 -8 -14 -9 -30 -2 -21 2 -30 12 -30 18 0 20 -21 4
-37 -13 -13 -42 -6 -33 8 3 5 0 9 -6 9 -12 0 -4 -82 10 -110 5 -8 6 -29 4 -47
-2 -21 1 -33 11 -37 8 -3 15 -12 15 -20 0 -7 8 -17 18 -21 14 -5 11 -9 -17
-21 -28 -12 -32 -17 -21 -27 10 -9 13 -9 17 1 3 6 9 12 15 12 6 0 8 -6 5 -14
-4 -10 5 -19 24 -28 16 -7 29 -16 29 -21 0 -4 15 -23 33 -41 44 -43 62 -121
38 -160 -9 -14 -24 -26 -34 -26 -10 0 -16 -4 -13 -8 3 -5 -16 -5 -42 -2 -26 5
-50 4 -53 -1 -3 -6 -12 -7 -21 -4 -14 6 -45 -42 -33 -53 3 -3 5 0 5 8 0 9 3
10 13 1 8 -6 18 -7 23 -3 4 4 2 -1 -6 -11 -12 -17 -12 -18 6 -15 13 2 19 -2
18 -14 -1 -10 2 -15 7 -12 5 3 9 11 9 19 0 9 7 7 24 -8 14 -12 21 -28 18 -39
-6 -25 -12 -23 -71 16 -46 31 -54 34 -87 24 -20 -5 -54 -19 -75 -30 -52 -27
-112 -22 -166 14 -27 18 -55 28 -79 28 -27 0 -34 3 -27 13 5 6 10 23 11 35 1
19 -3 22 -16 16 -9 -4 -26 -8 -37 -9 -24 -2 -52 -13 -83 -33 -23 -15 -23 -15
-2 -29 11 -8 25 -11 30 -8 6 3 10 2 10 -4 0 -5 3 -18 7 -28 5 -14 1 -13 -20 6
-15 14 -30 21 -34 17 -14 -13 -1 -91 19 -121 22 -32 138 -131 149 -128 4 1 33
-27 65 -63 50 -56 59 -71 61 -107 1 -26 -6 -58 -19 -84 -26 -53 -129 -163
-152 -163 -9 0 -19 -6 -22 -14 -3 -8 -12 -12 -20 -9 -18 7 -82 -42 -96 -73 -6
-13 -15 -24 -20 -24 -4 0 4 22 19 49 30 54 28 70 -8 50 -17 -9 -24 -9 -27 0
-5 15 -22 14 -22 -2 0 -7 -9 -18 -19 -24 -51 -32 -101 -217 -62 -231 9 -3 12
0 8 10 -7 20 28 49 50 41 12 -5 15 -2 11 9 -5 11 6 22 38 37 24 12 44 26 44
31 0 5 19 23 41 41 37 29 41 30 35 11 -10 -31 8 -27 38 9 14 17 30 27 36 24 5
-3 10 0 10 7 1 7 15 -3 31 -22 l31 -35 -4 33 c-4 29 -2 33 14 29 20 -6 25 9 6
16 -27 10 8 27 40 21 26 -5 32 -11 32 -33 0 -14 7 -34 14 -44 12 -15 13 -12 9
25 -3 24 0 54 6 68 l10 25 1 -30 c1 -16 4 -24 7 -17 2 6 9 12 14 12 15 0 10
-42 -7 -61 -11 -12 -14 -24 -8 -36 7 -16 8 -16 11 4 2 12 11 27 19 33 8 7 14
23 14 36 0 12 5 26 10 29 6 3 10 -4 10 -16 0 -18 2 -19 15 -9 20 16 19 0 -1
-28 -14 -20 -14 -22 0 -22 9 0 16 4 16 9 0 6 18 9 40 9 27 0 40 -5 40 -14 0
-17 5 -17 31 -4 10 6 19 7 19 2 0 -5 13 -8 30 -6 16 2 32 -1 35 -6 3 -5 13 -6
23 -3 15 6 15 5 3 -10 -12 -15 -10 -17 19 -17 26 0 31 -3 26 -16 -6 -15 -4
-15 11 -3 9 8 14 9 10 2 -4 -6 -1 -13 5 -16 10 -3 10 -7 0 -20 -12 -14 -11
-17 11 -22 13 -4 29 -17 36 -31 6 -13 15 -24 21 -24 6 0 8 -5 5 -11 -4 -6 1
-17 11 -25 18 -15 18 -15 0 -9 -20 6 -20 6 -1 -15 19 -21 19 -21 -10 -16 -25
5 -26 5 -9 -3 28 -12 42 -33 17 -24 -15 5 -16 3 -5 -8 21 -22 13 -32 -13 -15
-33 22 -36 20 -19 -11 18 -36 19 -62 2 -45 -20 20 -28 14 -18 -14 13 -34 13
-39 -4 -25 -11 9 -13 5 -10 -25 l3 -36 -26 23 -25 24 6 -25 c7 -25 7 -25 -10
-5 -16 19 -16 19 -10 -9 6 -26 5 -28 -9 -16 -14 12 -15 10 -5 -14 12 -33 12
-36 1 -36 -5 0 -12 8 -16 19 -3 10 -15 29 -26 42 l-21 24 4 -37 c4 -37 -5 -51
-15 -25 -3 6 -6 -1 -7 -18 -1 -29 -2 -29 -12 -7 -16 33 -28 27 -17 -10 12 -42
11 -58 -1 -58 -5 0 -10 12 -10 28 0 15 -5 34 -10 42 -7 11 -10 5 -10 -22 0
-21 -4 -38 -9 -38 -5 0 -7 9 -4 20 3 11 0 20 -6 20 -6 0 -11 8 -11 18 0 9 -9
-1 -19 -23 l-19 -40 5 53 c7 60 -8 70 -27 20 l-13 -33 -10 45 c-6 25 -12 38
-13 30 -1 -8 -5 -32 -9 -52 -3 -21 -10 -38 -15 -38 -6 0 -10 17 -10 38 l-1 37
-24 -45 -25 -45 1 35 c1 37 -7 79 -16 88 -3 3 -5 -16 -5 -42 0 -32 -4 -45 -11
-40 -7 4 -9 0 -6 -12 14 -49 18 -86 10 -81 -5 3 -15 32 -22 63 -9 40 -16 53
-22 43 -17 -27 -9 -111 18 -186 26 -74 26 -75 40 -49 8 15 11 31 8 36 -3 6 -1
10 4 10 6 0 11 -6 11 -12 0 -7 5 -5 11 5 16 28 32 20 25 -13 -5 -28 -4 -30 14
-20 10 5 22 19 25 30 9 29 25 24 25 -7 l0 -28 21 34 c15 25 23 31 29 21 4 -7
6 -20 3 -29 -5 -13 -3 -14 8 -3 35 32 46 -10 20 -79 -23 -59 -21 -77 4 -30 8
17 20 31 25 31 6 0 10 9 10 19 0 11 8 21 18 23 27 6 62 -21 62 -48 0 -33 16
-30 25 4 13 49 15 70 18 142 1 38 5 70 10 70 4 0 7 -12 7 -26 0 -16 4 -23 11
-18 7 4 9 0 6 -12 -6 -18 -27 -132 -27 -143 0 -3 5 0 12 7 19 19 26 15 46 -24
l19 -37 -5 57 c-3 36 -1 56 6 56 6 0 12 -21 14 -47 l3 -48 17 33 c16 31 16 36
-1 87 -10 30 -15 52 -11 50 4 -3 11 14 15 38 9 47 9 45 0 72 -5 14 0 11 19
-10 l25 -30 1 25 0 25 21 -25 20 -25 -5 36 c-5 25 -2 40 8 48 15 12 26 -3 26
-37 0 -9 7 -30 15 -46 20 -38 20 -70 0 -62 -11 4 -15 -1 -15 -17 0 -18 -2 -19
-11 -7 -8 12 -9 9 -5 -12 3 -15 2 -30 -4 -33 -9 -5 -14 16 -13 52 1 23 -15 13
-25 -14 -9 -27 -9 -28 -16 -5 -12 37 -29 26 -21 -15 3 -20 9 -53 11 -74 3 -21
11 -53 20 -71 l15 -33 -6 30 -5 30 16 -25 15 -25 -6 25 c-4 14 -9 41 -11 60
l-5 35 19 -35 c10 -19 24 -34 30 -32 7 1 12 -4 12 -12 0 -10 13 -14 45 -14 25
0 45 4 45 9 0 5 7 9 15 9 9 0 18 7 21 15 4 8 15 13 27 11 18 -2 24 -14 33 -62
6 -32 16 -70 22 -84 l11 -25 0 27 c1 14 6 28 13 30 15 5 -21 108 -38 108 -15
0 -28 35 -19 50 4 6 11 7 17 4 8 -5 9 -1 4 12 -8 19 -17 50 -35 118 -11 42
-20 58 -31 51 -5 -3 -14 10 -21 29 -7 19 -17 32 -23 30 -10 -4 -30 46 -41 103
-2 12 -9 32 -15 44 -9 15 -9 20 -1 14 11 -6 10 9 -6 70 -4 16 -1 14 16 -7 12
-15 36 -37 54 -49 l32 -23 -21 25 c-34 38 -62 101 -32 71 16 -16 33 -16 21 1
-6 6 -13 21 -17 31 -5 16 -4 17 8 7 11 -10 15 -8 19 6 4 16 6 15 12 -4 4 -13
11 -23 16 -23 13 0 11 24 -3 38 -7 7 -9 12 -6 12 13 0 60 -70 74 -107 l13 -38
1 46 c0 34 -8 59 -35 105 -32 53 -97 124 -115 124 -4 0 -15 -18 -25 -40 -10
-22 -21 -40 -25 -40 -4 0 -10 28 -14 61 -3 34 -10 67 -16 74 -17 20 -110 67
-110 55 0 -16 27 -65 64 -119 39 -55 70 -131 63 -157 -3 -14 -5 -13 -6 6 -1
14 -16 54 -34 89 -37 73 -61 92 -47 39 4 -18 11 -49 14 -68 9 -56 -10 -12 -25
55 -7 33 -17 69 -23 80 -6 11 -9 24 -8 28 4 15 -28 66 -49 78 -34 18 -31 5 6
-31 35 -34 49 -64 18 -39 -9 8 -14 10 -12 4 3 -5 15 -32 27 -59 13 -27 21 -57
19 -65 -2 -9 -9 2 -15 24 -14 48 -84 163 -90 147 -2 -7 -7 -10 -11 -7 -4 2
-23 7 -41 10 -19 3 -40 11 -47 17 -11 8 -12 7 -7 -8 7 -18 6 -18 -12 -3 -10 9
-25 14 -31 12 -7 -3 -13 0 -13 6 0 6 -5 11 -11 11 -7 0 -27 16 -46 36 -19 20
-37 34 -40 31 -10 -11 -33 21 -37 55 -3 18 -9 46 -14 63 -5 16 -5 47 -2 67 7
38 57 114 68 104 3 -4 15 3 28 15 12 11 29 21 37 23 8 1 22 8 31 15 9 7 16 11
16 8 0 -3 19 14 43 37 47 48 77 103 77 144 l0 27 19 -25 c11 -13 22 -37 25
-52 5 -26 8 -27 26 -16 13 8 18 20 15 35 -2 13 1 23 8 23 8 0 8 3 -1 12 -17
17 -15 39 5 53 15 11 15 15 3 30 -11 14 -11 18 0 25 7 4 10 15 7 24 -5 12 -2
14 18 6 14 -5 25 -7 25 -4 0 4 7 0 17 -7 15 -13 15 -12 4 9 -7 12 -16 20 -21
17 -5 -3 -11 -1 -15 5 -3 5 -13 10 -21 10 -16 0 -53 38 -54 54 0 5 8 2 17 -5
15 -13 16 -12 11 9 -6 20 1 27 25 23 10 -1 9 1 -8 43 -10 24 -12 36 -4 36 7 0
9 9 6 23 -3 12 -10 38 -15 57 -11 46 3 80 35 80 35 0 84 28 120 69 l31 36 26
-24 26 -25 -51 -35 c-28 -20 -69 -41 -91 -46 -39 -10 -40 -12 -44 -58 -2 -26
0 -47 4 -47 5 0 16 -16 25 -36 10 -19 22 -32 28 -29 5 4 21 0 34 -9 13 -9 26
-12 29 -7 7 11 -38 53 -54 49 -7 -2 -14 2 -16 7 -2 6 10 11 27 11 17 1 35 7
39 15 7 10 14 10 35 1 33 -15 68 -15 63 -1 -2 7 -25 23 -51 36 -43 23 -67 50
-32 37 7 -3 30 6 49 21 27 20 42 26 62 21 14 -4 34 -4 45 -1 20 7 27 45 7 45
-6 0 -9 2 -7 5 10 9 81 -17 101 -37 l20 -20 -24 7 -23 6 24 -20 c19 -17 20
-21 6 -21 -9 0 -25 5 -36 10 -10 6 -19 7 -19 2 0 -12 46 -32 75 -32 23 0 25 4
25 44 0 25 -12 82 -27 128 -15 46 -26 88 -25 94 1 6 -13 28 -32 50 l-34 39 -7
-40 c-14 -85 -17 -88 -78 -100 -42 -8 -62 -8 -79 1 -30 15 -108 25 -108 13 0
-5 -7 -9 -15 -9 -8 0 -15 5 -15 10 0 6 -7 10 -16 10 -8 0 -12 5 -9 10 3 6 1
10 -6 10 -8 0 -8 4 1 15 8 10 9 15 2 15 -7 0 -5 13 4 36 8 20 13 38 11 40 -8
8 -37 -8 -37 -20 0 -18 -38 -89 -52 -97 -8 -5 -12 -27 -11 -58 2 -35 -2 -51
-12 -55 -8 -3 -15 -12 -15 -21 0 -22 -23 -18 -48 8 -36 39 -25 81 35 132 27
22 31 30 23 45 -6 10 -6 21 -1 24 4 3 8 45 7 93 -2 76 -6 94 -28 129 -15 22
-34 48 -43 57 -16 17 -65 24 -65 10z m76 -180 c21 -28 17 -46 -6 -23 -19 19
-26 40 -14 40 4 0 13 -8 20 -17z m-46 -163 c0 -5 -4 -10 -10 -10 -5 0 -10 5
-10 10 0 6 5 10 10 10 6 0 10 -4 10 -10z m310 -60 c0 -5 -9 -6 -20 -3 -11 3
-20 9 -20 13 0 5 9 6 20 3 11 -3 20 -9 20 -13z m-95 -10 c3 -5 -3 -10 -14 -10
-12 0 -21 5 -21 10 0 6 6 10 14 10 8 0 18 -4 21 -10z m72 -43 c-22 -35 -79
-59 -111 -47 -27 10 -44 35 -32 48 4 3 11 0 16 -8 7 -11 16 -12 47 -2 21 6 47
18 58 26 27 19 39 9 22 -17z m241 -19 c15 -15 16 -32 1 -23 -5 4 -32 7 -59 7
-27 -1 -52 3 -55 8 -3 5 15 8 40 6 25 -1 45 1 45 6 0 12 14 10 28 -4z m-1019
-510 c2 21 44 14 113 -20 71 -35 82 -54 30 -51 l-31 2 30 -30 c24 -23 28 -34
23 -55 -5 -19 -4 -25 5 -20 14 9 14 -12 0 -70 -11 -42 -30 -57 -45 -33 -3 6
-1 21 6 34 37 69 -62 199 -142 186 -5 0 -8 11 -8 25 0 21 -3 24 -13 15 -24
-19 -28 1 -5 21 21 18 23 18 29 1 4 -10 8 -12 8 -5z m400 -7 c22 -14 8 -33
-26 -36 -75 -6 -160 -114 -135 -170 11 -24 6 -65 -8 -65 -23 0 -28 139 -7 190
16 36 81 73 157 89 3 0 11 -3 19 -8z m-444 -41 c3 -5 1 -10 -4 -10 -6 0 -11 5
-11 10 0 6 2 10 4 10 3 0 8 -4 11 -10z m862 -892 c-3 -7 -5 -2 -5 12 0 14 2
19 5 13 2 -7 2 -19 0 -25z m7 -275 c9 -19 12 -41 7 -68 -6 -36 -8 -38 -18 -20
-23 41 -28 115 -8 115 3 0 11 -12 19 -27z m-211 -125 c3 -21 2 -40 -2 -43 -9
-5 -21 43 -21 84 1 35 15 9 23 -41z m282 18 c4 -25 5 -51 2 -58 -3 -7 -6 0 -6
15 -1 16 -5 26 -11 22 -5 -3 -6 -13 -3 -22 4 -10 2 -14 -4 -10 -16 10 -22 69
-9 84 18 21 24 15 31 -31z m-251 19 c-4 -8 -11 -15 -16 -15 -6 0 -5 6 2 15 7
8 14 15 16 15 2 0 1 -7 -2 -15z m-274 -25 c0 -11 -4 -20 -9 -20 -5 0 -7 9 -4
20 3 11 7 20 9 20 2 0 4 -9 4 -20z m287 -12 c-3 -8 -6 -5 -6 6 -1 11 2 17 5
13 3 -3 4 -12 1 -19z m-477 -89 c0 -10 -4 -19 -10 -19 -5 0 -9 11 -8 24 3 28
18 24 18 -5z"/>
<path d="M2595 3330 c-3 -5 1 -10 9 -10 9 0 16 5 16 10 0 6 -4 10 -9 10 -6 0
-13 -4 -16 -10z"/>
<path d="M3698 4313 c6 -2 12 -11 12 -19 0 -9 11 -14 35 -14 19 0 35 5 35 11
0 6 -8 8 -19 4 -10 -3 -24 1 -31 10 -7 8 -20 15 -29 14 -10 0 -11 -2 -3 -6z"/>
<path d="M3567 4288 c-21 -16 -12 -58 12 -58 9 0 34 -3 56 -6 33 -6 38 -4 28
7 -7 7 -13 19 -13 27 0 36 -51 54 -83 30z"/>
<path d="M2443 4255 c-11 -18 -3 -74 19 -140 9 -29 19 -40 33 -40 14 0 20 7
22 25 0 14 2 41 3 60 l3 35 7 -35 7 -35 2 33 c1 23 -4 34 -16 38 -34 10 -48
21 -51 40 -6 29 -19 38 -29 19z"/>
<path d="M2571 4254 c0 -11 3 -14 6 -6 3 7 2 16 -1 19 -3 4 -6 -2 -5 -13z"/>
<path d="M3730 4260 c-12 -8 -12 -10 5 -9 11 0 29 4 40 9 18 8 18 9 -5 9 -14
0 -32 -4 -40 -9z"/>
<path d="M3230 4245 c-14 -16 -3 -20 19 -6 8 5 9 11 3 15 -5 3 -15 -1 -22 -9z"/>
<path d="M2210 4220 c0 -15 7 -20 25 -20 30 0 33 15 6 30 -27 14 -31 13 -31
-10z"/>
<path d="M3750 4232 c0 -19 41 -36 50 -22 5 8 20 11 39 8 17 -2 31 -1 31 4 0
4 -13 8 -29 8 -16 0 -43 3 -60 6 -19 4 -31 2 -31 -4z"/>
<path d="M2894 4216 c-6 -17 2 -36 17 -36 12 0 12 37 -1 45 -6 3 -13 -1 -16
-9z"/>
<path d="M3232 4208 c-14 -14 -16 -28 -3 -28 9 0 24 30 18 36 -2 2 -9 -2 -15
-8z"/>
<path d="M3570 4213 c0 -5 4 -13 9 -18 5 -6 11 -30 12 -55 3 -53 8 -67 20 -49
6 10 18 6 52 -19 56 -40 108 -47 113 -15 2 12 -1 25 -6 28 -6 3 -10 13 -10 22
0 21 -87 103 -109 103 -10 0 -33 3 -50 6 -17 4 -31 2 -31 -3z"/>
<path d="M2337 4190 c7 -25 23 -37 23 -17 0 8 -6 20 -14 26 -12 10 -13 8 -9
-9z"/>
<path d="M2115 4175 c-29 -15 -71 -72 -60 -83 3 -3 28 2 56 11 36 11 58 13 76
6 22 -8 24 -7 18 11 -5 16 -3 19 11 13 12 -4 15 -3 10 5 -12 20 17 13 56 -13
61 -41 67 -26 13 29 -39 40 -75 48 -75 16 0 -11 -3 -20 -6 -20 -3 0 -17 9 -31
20 -30 24 -30 24 -68 5z"/>
<path d="M2645 4170 c-7 -11 2 -30 14 -30 5 0 11 9 14 20 5 21 -16 29 -28 10z"/>
<path d="M3795 4170 c3 -5 13 -10 21 -10 8 0 12 5 9 10 -3 6 -13 10 -21 10 -8
0 -12 -4 -9 -10z"/>
<path d="M3235 4129 c-4 -6 -5 -13 -2 -16 7 -7 27 6 27 18 0 12 -17 12 -25 -2z"/>
<path d="M3357 4133 c-27 -4 -66 -48 -54 -60 4 -3 17 -7 29 -8 13 -2 50 -8 83
-15 86 -17 118 -11 122 21 3 22 -3 28 -34 42 -43 18 -104 27 -146 20z"/>
<path d="M3836 4118 c11 -13 19 -33 18 -46 -1 -13 6 -27 18 -33 10 -5 16 -14
13 -20 -4 -5 1 -12 9 -15 14 -5 58 -84 62 -112 2 -7 -4 -16 -12 -19 -21 -8
-17 -18 12 -32 15 -6 24 -15 20 -18 -3 -3 -1 -13 6 -20 10 -13 20 -113 21
-208 0 -95 -8 -215 -14 -215 -5 0 -6 -15 -4 -33 3 -19 1 -48 -4 -64 -6 -21 -5
-35 2 -42 8 -8 8 -11 0 -11 -19 0 -2 -40 24 -57 19 -13 26 -14 32 -4 6 9 18 9
52 -3 58 -21 66 -20 38 3 l-24 20 37 -9 c21 -4 53 -17 73 -29 51 -30 43 -11
-9 22 -50 31 -88 69 -49 49 32 -18 38 -15 18 8 -19 21 -8 29 13 8 8 -8 15 -8
27 2 13 11 20 10 45 -9 52 -38 33 -5 -29 51 -63 57 -74 90 -33 96 22 3 31 22
11 22 -6 0 -9 7 -5 15 4 10 -1 15 -14 15 -24 0 -26 13 -4 31 14 12 14 14 -5
21 -12 4 -18 13 -15 22 3 8 0 17 -6 21 -8 5 -8 11 1 21 9 11 8 14 -7 14 -15 0
-16 2 -5 9 8 5 20 7 28 4 7 -3 13 0 13 6 0 6 -11 13 -25 17 -28 7 -32 25 -10
44 12 10 12 15 0 34 -8 13 -12 26 -9 29 4 4 1 14 -7 24 -12 15 -12 16 4 10 24
-9 22 10 -3 23 -24 13 -26 30 -3 30 12 0 8 8 -15 26 -18 15 -32 34 -32 43 0 9
-14 29 -30 45 -32 31 -38 46 -18 46 6 0 -2 11 -19 26 -21 17 -29 31 -26 45 4
15 0 19 -21 19 -31 0 -34 13 -5 26 18 9 14 12 -35 33 -31 12 -56 27 -56 32 0
5 -14 9 -32 9 l-31 0 19 -22z"/>
<path d="M1568 4052 c-13 -16 -43 -37 -66 -47 -22 -10 -38 -23 -35 -28 3 -5
-1 -14 -8 -19 -10 -6 -3 -7 18 -3 l33 7 -45 -46 c-26 -27 -38 -46 -30 -46 8 0
15 -6 15 -13 0 -16 -32 -47 -48 -47 -6 0 -14 -5 -18 -11 -4 -8 3 -9 27 -4 l33
7 -28 -32 c-15 -18 -24 -35 -21 -38 3 -4 10 0 15 8 8 13 10 13 10 1 0 -8 -12
-28 -27 -43 -24 -25 -25 -28 -8 -28 15 0 10 -10 -25 -45 -47 -48 -47 -54 1
-29 17 8 34 13 37 10 6 -6 -42 -61 -90 -104 -43 -37 -33 -47 13 -14 32 24 44
28 54 19 11 -10 10 -15 -2 -29 -9 -10 -12 -18 -8 -18 5 0 -6 -16 -25 -35 -19
-19 -29 -35 -23 -35 7 0 15 5 18 10 3 6 13 10 22 10 13 0 13 -3 3 -15 -10 -12
-10 -19 -2 -27 9 -9 12 -9 12 0 0 7 5 12 10 12 17 0 11 -16 -25 -64 -32 -41
-37 -64 -7 -34 25 25 24 -4 -1 -30 -31 -32 -35 -47 -9 -33 16 8 72 4 72 -5 0
-12 -29 -51 -55 -75 -38 -35 -27 -48 13 -14 16 14 40 25 52 25 18 0 21 -4 16
-24 -5 -20 -3 -23 18 -19 22 5 41 34 37 57 -1 5 3 12 9 16 6 3 12 17 15 30 2
13 14 33 25 46 14 14 18 24 11 29 -6 3 -9 11 -5 16 9 15 13 82 6 94 -12 18 -7
60 8 72 12 10 12 12 1 13 -7 0 -11 6 -7 15 3 8 1 15 -5 15 -6 0 -7 5 -3 11 4
7 7 32 8 56 1 27 7 47 16 53 12 8 11 10 -7 10 -26 0 -26 0 -14 34 7 17 7 26
-2 30 -9 3 -8 7 2 14 8 6 11 17 8 26 -4 10 2 22 18 32 30 20 32 30 5 37 -37 9
-16 86 23 87 7 0 3 8 -8 16 -20 15 -20 15 2 33 12 10 19 22 15 26 -10 10 -9
55 1 55 5 0 4 7 -3 15 -9 10 -9 15 -1 15 6 0 11 5 11 10 0 20 -29 10 -52 -18z"/>
<path d="M2460 4063 c0 -5 5 -15 10 -23 8 -12 10 -11 10 8 0 12 -4 22 -10 22
-5 0 -10 -3 -10 -7z"/>
<path d="M2682 4045 c0 -16 2 -22 5 -12 2 9 2 23 0 30 -3 6 -5 -1 -5 -18z"/>
<path d="M2620 4004 c0 -8 5 -12 10 -9 6 4 8 11 5 16 -9 14 -15 11 -15 -7z"/>
<path d="M1715 3986 c-9 -13 -18 -34 -20 -46 -2 -12 -9 -28 -16 -36 -9 -10 -9
-17 0 -28 6 -7 9 -21 5 -30 -3 -9 -1 -16 4 -16 11 0 8 -60 -5 -110 -3 -14 -5
-29 -4 -35 4 -16 3 -66 -3 -107 -3 -21 -1 -40 5 -43 5 -4 7 -10 4 -14 -7 -12
39 -139 58 -161 8 -10 12 -22 9 -26 -4 -4 -1 -4 6 0 14 8 17 36 3 36 -5 0 -9
10 -9 23 0 12 -1 74 -2 138 -2 69 2 129 9 151 6 19 13 59 15 89 2 30 6 61 9
69 3 8 8 40 11 70 4 42 2 62 -10 78 -20 29 -50 28 -69 -2z"/>
<path d="M2550 3998 c0 -7 5 -20 10 -28 8 -12 10 -9 10 13 0 15 -4 27 -10 27
-5 0 -10 -6 -10 -12z"/>
<path d="M2586 3975 c-3 -8 -1 -15 4 -15 6 0 10 7 10 15 0 8 -2 15 -4 15 -2 0
-6 -7 -10 -15z"/>
<path d="M3722 3967 c-8 -9 -9 -23 -2 -48 6 -18 10 -48 10 -65 0 -17 6 -37 13
-43 21 -17 40 -89 44 -166 10 -212 0 -266 -59 -325 -22 -22 -45 -40 -50 -40
-5 0 -6 -5 -2 -12 5 -8 -7 -10 -47 -5 -30 3 -62 8 -71 12 -32 13 -30 -20 4
-78 17 -31 34 -54 37 -52 4 4 6 16 10 58 2 16 21 -5 21 -22 0 -10 6 -24 14
-30 20 -17 65 6 73 38 3 14 12 34 18 44 12 17 13 17 19 1 4 -10 2 -20 -4 -24
-6 -4 -8 -14 -5 -22 4 -9 1 -19 -5 -23 -6 -4 -8 -15 -5 -26 4 -12 1 -21 -9
-25 -9 -3 -12 -12 -9 -21 4 -11 2 -14 -5 -9 -6 4 -10 -1 -10 -11 1 -10 -2 -27
-5 -39 -7 -18 0 -24 49 -43 31 -11 59 -19 64 -16 7 4 18 46 26 100 6 40 5 174
-1 232 -5 40 -2 78 8 119 38 146 56 355 34 391 -4 6 -8 29 -9 52 -1 31 -9 47
-32 70 -36 35 -96 50 -114 28z"/>
<path d="M2536 3931 c-4 -7 -5 -15 -2 -18 9 -9 19 4 14 18 -4 11 -6 11 -12 0z"/>
<path d="M2936 3884 c-9 -25 -7 -33 12 -43 14 -7 18 -6 19 9 1 12 -3 17 -12
14 -10 -4 -12 0 -8 15 6 25 -2 28 -11 5z"/>
<path d="M2731 3849 c-7 -12 -10 -23 -8 -26 3 -3 11 5 17 17 6 12 10 23 8 25
-2 2 -10 -5 -17 -16z"/>
<path d="M2930 3790 c20 -13 33 -13 25 0 -3 6 -14 10 -23 10 -15 0 -15 -2 -2
-10z"/>
<path d="M1883 3764 c3 -4 -1 -13 -9 -21 -9 -9 -12 -22 -8 -32 4 -9 9 -32 11
-51 5 -42 39 -110 65 -128 10 -7 18 -22 18 -33 0 -15 7 -19 33 -19 64 0 114
44 84 74 -8 9 -19 16 -22 16 -15 0 -85 62 -79 71 3 5 0 9 -6 9 -7 0 -10 7 -7
15 4 8 2 17 -4 20 -5 4 -7 10 -5 14 7 10 -50 71 -65 71 -7 0 -10 -3 -6 -6z"/>
<path d="M3614 3715 c3 -8 0 -15 -7 -15 -15 0 -37 -46 -37 -77 0 -13 -14 -36
-32 -53 l-32 -31 18 -34 c30 -54 53 -54 71 0 9 24 15 29 36 27 16 -2 26 2 27
10 1 7 3 45 6 83 5 70 4 71 -26 88 -25 15 -29 15 -24 2z"/>
<path d="M2217 3683 c-12 -11 -8 -23 8 -23 8 0 15 7 15 15 0 16 -12 20 -23 8z"/>
<path d="M3365 3640 c3 -5 8 -10 11 -10 2 0 4 5 4 10 0 6 -5 10 -11 10 -5 0
-7 -4 -4 -10z"/>
<path d="M2140 3623 c0 -22 18 -23 41 -3 l24 19 -32 -2 c-18 -1 -33 -7 -33
-14z"/>
<path d="M3400 3577 c0 -21 22 -37 52 -37 36 0 35 11 -3 33 -37 20 -49 22 -49
4z"/>
<path d="M2860 3545 c0 -18 19 -40 26 -32 4 4 0 15 -9 24 -9 10 -17 13 -17 8z"/>
<path d="M2111 3499 c-32 -32 -35 -46 -7 -36 17 7 51 55 44 63 -3 3 -20 -9
-37 -27z"/>
<path d="M3250 3515 c7 -8 16 -15 21 -15 5 0 6 7 3 15 -4 8 -13 15 -21 15 -13
0 -13 -3 -3 -15z"/>
<path d="M3460 3520 c0 -5 10 -10 23 -10 18 0 19 2 7 10 -19 13 -30 13 -30 0z"/>
<path d="M3370 3511 c0 -5 18 -24 40 -41 36 -28 40 -30 40 -12 0 13 -14 27
-40 41 -22 11 -40 17 -40 12z"/>
<path d="M2365 3491 c-6 -20 3 -51 15 -51 9 0 18 41 12 58 -6 18 -20 15 -27
-7z"/>
<path d="M2836 3501 c-4 -6 -3 -11 2 -11 5 0 14 -11 20 -25 10 -22 14 -24 26
-13 12 11 11 14 -4 20 -10 4 -23 14 -28 24 -6 11 -11 13 -16 5z"/>
<path d="M3487 3473 c-24 -23 19 -79 53 -68 22 7 17 31 -13 58 -22 18 -30 21
-40 10z"/>
<path d="M2825 3460 c-3 -5 -1 -10 4 -10 6 0 11 5 11 10 0 6 -2 10 -4 10 -3 0
-8 -4 -11 -10z"/>
<path d="M2796 3427 c3 -10 9 -15 12 -12 3 3 0 11 -7 18 -10 9 -11 8 -5 -6z"/>
<path d="M3287 3409 c7 -7 15 -10 18 -7 3 3 -2 9 -12 12 -14 6 -15 5 -6 -5z"/>
<path d="M3410 3408 c0 -9 9 -26 21 -39 l20 -24 -7 25 c-3 14 -12 32 -20 40
-12 12 -14 12 -14 -2z"/>
<path d="M2046 3375 c-19 -19 -36 -47 -38 -62 -2 -21 -9 -29 -28 -31 -14 -2
-33 -11 -42 -19 -20 -18 -25 -4 -5 16 10 11 8 11 -10 2 -27 -14 -70 -14 -78 0
-4 6 -13 8 -21 5 -9 -4 -18 4 -24 20 -10 24 -12 25 -32 12 -30 -20 -34 -38 -9
-38 14 0 21 -6 21 -20 0 -18 -5 -20 -37 -18 -32 3 -37 0 -44 -25 -4 -15 -18
-36 -31 -47 -19 -16 -20 -19 -5 -20 17 0 21 -19 19 -77 -1 -22 2 -23 83 -23
46 0 86 4 89 9 8 13 -17 61 -33 61 -11 0 -11 3 -2 14 10 12 7 18 -13 31 -29
20 -33 37 -11 55 9 8 15 9 15 2 0 -6 -4 -14 -10 -17 -5 -3 -10 -10 -10 -16 0
-5 9 -4 20 3 16 10 22 10 28 1 11 -17 62 -34 75 -26 7 4 25 7 41 8 35 0 64 42
65 92 1 24 12 41 51 76 28 25 50 50 50 56 0 23 -41 10 -74 -24z"/>
<path d="M3456 3402 c-8 -13 32 -72 49 -72 22 0 18 40 -7 61 -23 21 -34 23
-42 11z"/>
<path d="M3310 3370 c0 -5 5 -10 11 -10 5 0 7 5 4 10 -3 6 -8 10 -11 10 -2 0
-4 -4 -4 -10z"/>
<path d="M2367 3316 c-4 -10 -5 -21 -2 -24 9 -9 17 6 13 25 -3 17 -4 17 -11
-1z"/>
<path d="M3400 3310 c0 -5 5 -10 11 -10 5 0 7 5 4 10 -3 6 -8 10 -11 10 -2 0
-4 -4 -4 -10z"/>
<path d="M2290 3294 c0 -8 5 -12 10 -9 6 4 8 11 5 16 -9 14 -15 11 -15 -7z"/>
<path d="M3466 3275 c6 -32 21 -55 36 -55 5 0 1 12 -10 28 -10 15 -22 34 -26
42 -3 8 -3 2 0 -15z"/>
<path d="M3420 3264 c0 -5 7 -19 15 -30 8 -10 15 -14 15 -8 0 5 -7 19 -15 30
-8 10 -15 14 -15 8z"/>
<path d="M2063 3248 c-4 -7 -8 -17 -9 -23 -1 -5 -5 -19 -9 -30 -7 -18 -6 -18
7 -5 9 8 18 27 22 43 7 29 2 35 -11 15z"/>
<path d="M2210 3245 c-7 -9 -10 -18 -7 -21 3 -3 10 4 17 15 13 25 8 27 -10 6z"/>
<path d="M2140 3208 c-21 -35 -26 -58 -11 -58 11 0 36 37 45 68 11 34 -11 27
-34 -10z"/>
<path d="M3305 3201 c-7 -12 12 -24 25 -16 11 7 4 25 -10 25 -5 0 -11 -4 -15
-9z"/>
<path d="M3460 3179 c0 -6 8 -23 18 -37 10 -15 24 -42 31 -59 8 -18 17 -33 22
-33 11 0 -10 58 -38 103 -24 38 -33 45 -33 26z"/>
<path d="M2036 3158 c-3 -7 -7 -25 -10 -40 -4 -17 -16 -30 -33 -36 l-28 -10
30 -1 c26 -1 33 5 48 39 9 22 17 45 17 50 0 14 -20 12 -24 -2z"/>
<path d="M3175 3160 c-3 -5 -2 -10 4 -10 5 0 13 5 16 10 3 6 2 10 -4 10 -5 0
-13 -4 -16 -10z"/>
<path d="M3390 3148 c0 -14 8 -36 19 -49 10 -13 16 -29 14 -34 -2 -6 6 -11 17
-12 25 -2 25 -1 -6 55 -35 63 -44 72 -44 40z"/>
<path d="M2300 3140 c-19 -5 -45 -6 -56 -4 -26 7 -40 -22 -22 -43 10 -13 14
-13 25 3 12 16 14 16 31 1 11 -11 22 -13 32 -7 9 5 19 5 27 -2 7 -6 13 -7 13
-2 0 5 4 3 9 -5 14 -23 43 6 39 38 -2 21 -9 26 -33 28 -16 1 -46 -2 -65 -7z"/>
<path d="M2145 3123 c-11 -3 -28 -12 -38 -21 -16 -14 -16 -17 -2 -25 10 -5 21
-5 29 2 6 5 21 8 33 5 26 -7 39 12 23 31 -7 8 -15 14 -19 14 -3 -1 -15 -4 -26
-6z"/>
<path d="M3970 3123 c0 -4 10 -17 22 -30 20 -22 20 -23 3 -23 -18 0 -18 -1 -4
-16 11 -10 24 -13 43 -8 21 5 24 9 14 15 -8 6 1 9 27 9 l40 0 -29 15 c-15 8
-35 15 -43 15 -8 0 -27 7 -43 15 -17 9 -30 12 -30 8z"/>
<path d="M3147 3087 c-15 -17 -27 -34 -27 -37 0 -3 18 -7 40 -8 38 -3 40 -1
40 26 0 48 -21 56 -53 19z"/>
<path d="M3215 3099 c-9 -13 3 -59 15 -59 5 0 14 9 20 21 17 30 -17 67 -35 38z"/>
<path d="M3580 3094 c0 -8 5 -12 10 -9 6 3 10 10 10 16 0 5 -4 9 -10 9 -5 0
-10 -7 -10 -16z"/>
<path d="M1483 3089 c-25 -9 -30 -19 -10 -19 15 0 43 17 37 23 -3 3 -15 1 -27
-4z"/>
<path d="M3274 3085 c-9 -24 22 -53 38 -37 9 9 10 17 2 29 -15 24 -33 27 -40
8z"/>
<path d="M3346 3093 c-11 -11 -7 -41 7 -45 18 -7 37 2 37 17 0 16 -34 38 -44
28z"/>
<path d="M1960 3040 c-22 -7 -21 -8 12 -9 20 -1 40 4 43 9 7 12 -19 12 -55 0z"/>
<path d="M1720 3029 c-11 -8 -12 -12 -2 -16 6 -2 12 -11 12 -19 0 -8 7 -17 15
-20 19 -8 126 37 122 50 -5 15 -128 19 -147 5z"/>
<path d="M3980 3020 c0 -11 -5 -20 -11 -20 -5 0 -7 -4 -4 -10 3 -5 15 -10 25
-10 33 0 107 -38 149 -75 23 -21 41 -32 41 -26 0 6 -24 29 -52 51 -29 23 -64
52 -78 64 -14 13 -35 28 -47 35 -20 10 -23 9 -23 -9z"/>
<path d="M3432 3018 c5 -15 28 -18 29 -3 0 6 -7 12 -17 13 -10 3 -15 -1 -12
-10z"/>
<path d="M3530 3020 c8 -5 22 -10 30 -10 13 0 13 1 0 10 -8 5 -22 10 -30 10
-13 0 -13 -1 0 -10z"/>
<path d="M1498 3013 c7 -3 16 -2 19 1 4 3 -2 6 -13 5 -11 0 -14 -3 -6 -6z"/>
<path d="M1964 3012 c-13 -5 -20 -14 -18 -25 4 -28 6 -28 59 3 l50 30 -35 -1
c-19 -1 -44 -4 -56 -7z"/>
<path d="M3513 2993 c5 -31 16 -41 52 -45 30 -3 33 -2 20 12 -7 8 -27 23 -44
33 -30 18 -31 18 -28 0z"/>
<path d="M2016 2971 c-27 -15 -56 -38 -65 -51 -15 -22 -15 -23 4 -12 11 5 28
19 38 30 10 11 32 26 48 32 16 7 29 16 29 21 0 11 4 13 -54 -20z"/>
<path d="M2389 2991 c-2 -6 -36 -16 -74 -22 -74 -12 -105 -23 -105 -40 0 -6 8
-6 21 1 16 9 23 8 32 -4 10 -13 19 -14 47 -6 19 5 38 6 43 1 17 -17 177 37
177 60 0 4 -28 6 -62 4 -35 -1 -66 2 -69 8 -4 5 -8 5 -10 -2z"/>
<path d="M3649 2977 c-20 -28 -9 -57 22 -57 11 0 36 -7 56 -15 36 -15 36 -15
18 5 -18 19 -18 20 2 20 12 0 24 7 27 16 4 11 -6 20 -37 34 -54 25 -68 24 -88
-3z"/>
<path d="M1812 2976 c-20 -10 -21 -14 -9 -24 18 -15 44 -6 58 19 8 15 6 19 -8
19 -10 -1 -28 -6 -41 -14z"/>
<path d="M1529 2962 c-13 -10 -36 -23 -51 -30 -16 -6 -28 -16 -28 -21 0 -6 16
-3 35 5 44 18 43 19 43 -13 0 -15 4 -29 10 -31 6 -2 8 -10 6 -17 -4 -9 4 -17
21 -21 22 -5 33 -1 58 24 l31 31 -32 31 c-18 16 -32 35 -32 41 0 5 -4 7 -10 4
-5 -3 -10 -1 -10 4 0 16 -14 13 -41 -7z"/>
<path d="M4444 2961 c11 -11 23 -21 28 -21 14 0 -1 19 -25 31 -22 12 -22 12
-3 -10z"/>
<path d="M2995 2960 c3 -5 10 -10 16 -10 5 0 9 5 9 10 0 6 -7 10 -16 10 -8 0
-12 -4 -9 -10z"/>
<path d="M3904 2953 c3 -7 1 -15 -5 -18 -5 -4 26 -32 68 -62 43 -31 93 -70
111 -87 17 -16 32 -25 32 -18 0 7 -4 12 -10 12 -5 0 -10 5 -10 12 0 7 -12 23
-27 35 -22 18 -23 21 -8 17 11 -4 40 -25 64 -48 43 -40 48 -33 8 12 -22 24
-17 28 16 11 41 -19 -26 33 -93 74 -43 26 -60 42 -56 52 6 16 -1 18 -62 20
-22 0 -31 -3 -28 -12z"/>
<path d="M1838 2931 c-47 -42 -31 -47 17 -6 22 19 34 34 28 35 -7 0 -27 -13
-45 -29z"/>
<path d="M2101 2939 c5 -10 17 -19 25 -19 16 0 74 27 74 35 0 2 -25 4 -55 4
-50 -1 -54 -3 -44 -20z"/>
<path d="M3273 2943 c9 -9 19 -14 23 -11 10 10 -6 28 -24 28 -15 0 -15 -1 1
-17z"/>
<path d="M4391 2938 c18 -34 71 -98 81 -98 5 0 4 9 -2 21 -7 11 -9 23 -7 26 6
5 -66 73 -77 73 -4 0 -1 -10 5 -22z"/>
<path d="M3040 2940 c20 -13 33 -13 25 0 -3 6 -14 10 -23 10 -15 0 -15 -2 -2
-10z"/>
<path d="M3120 2930 c33 -26 48 -26 25 0 -10 11 -25 20 -34 20 -12 0 -9 -6 9
-20z"/>
<path d="M3172 2943 c-10 -4 -8 -11 9 -29 20 -22 49 -32 49 -19 0 10 -32 55
-39 54 -3 0 -12 -3 -19 -6z"/>
<path d="M1873 2918 c-37 -42 -37 -54 0 -19 21 19 37 36 37 38 0 10 -19 0 -37
-19z"/>
<path d="M3347 2923 c33 -17 51 -13 38 6 -3 6 -21 11 -38 10 l-32 0 32 -16z"/>
<path d="M3518 2910 c-6 -41 6 -46 31 -13 17 20 19 28 9 35 -24 15 -36 8 -40
-22z"/>
<path d="M3246 2916 c7 -18 30 -28 67 -31 38 -4 34 3 -19 25 -55 24 -55 24
-48 6z"/>
<path d="M3440 2920 c0 -5 5 -10 11 -10 5 0 7 5 4 10 -3 6 -8 10 -11 10 -2 0
-4 -4 -4 -10z"/>
<path d="M3567 2890 l-28 -29 43 -22 c40 -20 42 -20 26 -2 -27 29 -22 40 6 14
14 -13 22 -29 20 -36 -3 -7 2 -15 12 -19 13 -5 14 -4 6 7 -7 8 -9 17 -5 20 3
4 -2 15 -11 26 -21 23 -3 40 21 19 15 -12 15 -11 4 9 -11 21 -40 43 -58 43 -4
0 -21 -13 -36 -30z"/>
<path d="M1959 2884 l-24 -26 24 4 c14 2 27 13 32 26 11 29 -2 28 -32 -4z"/>
<path d="M3872 2894 c-7 -8 -10 -19 -7 -24 3 -5 0 -7 -8 -4 -8 3 -18 1 -21 -5
-4 -5 21 -29 55 -51 33 -23 90 -70 125 -105 70 -69 88 -66 24 4 -22 24 -39 45
-37 47 2 2 20 -8 40 -21 43 -30 57 -32 33 -6 -10 11 -15 24 -12 29 7 11 -54
69 -114 109 -65 43 -64 42 -78 27z m158 -114 c0 -5 -2 -10 -4 -10 -3 0 -8 5
-11 10 -3 6 -1 10 4 10 6 0 11 -4 11 -10z"/>
<path d="M1884 2879 c-15 -16 -16 -22 -4 -29 9 -5 19 -1 31 13 29 37 5 52 -27
16z"/>
<path d="M2550 2879 c0 -5 5 -7 10 -4 6 3 10 8 10 11 0 2 -4 4 -10 4 -5 0 -10
-5 -10 -11z"/>
<path d="M1637 2852 l-28 -29 23 -7 c29 -7 88 -8 88 0 0 3 -13 18 -28 35 l-28
30 -27 -29z"/>
<path d="M2470 2851 c-17 -14 -20 -20 -10 -21 22 0 43 16 38 30 -2 8 -11 5
-28 -9z"/>
<path d="M2990 2851 c0 -5 9 -11 20 -14 24 -6 27 8 4 17 -21 8 -24 8 -24 -3z"/>
<path d="M1953 2840 c-13 -5 -23 -11 -23 -13 0 -8 50 5 56 14 6 11 -4 11 -33
-1z"/>
<path d="M2015 2830 c-3 -5 -2 -10 4 -10 5 0 13 5 16 10 3 6 2 10 -4 10 -5 0
-13 -4 -16 -10z"/>
<path d="M2393 2825 c-3 -9 -3 -18 -1 -21 9 -9 38 8 38 22 0 19 -29 18 -37 -1z"/>
<path d="M3795 2829 c4 -6 1 -10 -6 -8 -45 6 -49 0 -26 -33 56 -81 90 -124
105 -132 9 -5 40 -27 69 -48 62 -46 77 -49 38 -8 -24 25 -26 32 -15 45 12 14
17 12 46 -16 19 -19 39 -29 48 -26 8 3 17 1 19 -6 2 -7 7 -9 11 -6 15 14 -105
137 -187 192 -79 54 -117 71 -102 46z"/>
<path d="M1748 2823 c7 -3 16 -2 19 1 4 3 -2 6 -13 5 -11 0 -14 -3 -6 -6z"/>
<path d="M3065 2810 c10 -11 25 -20 33 -20 12 0 12 4 -3 20 -10 11 -25 20 -33
20 -12 0 -12 -4 3 -20z"/>
<path d="M1548 2795 c-3 -14 -2 -25 3 -25 12 0 30 36 22 44 -12 12 -21 6 -25
-19z"/>
<path d="M1920 2764 c-99 -82 -154 -152 -96 -122 29 15 176 157 176 169 0 16
-15 8 -80 -47z"/>
<path d="M2315 2798 c-14 -21 -14 -23 0 -26 8 -2 26 5 40 16 21 17 22 21 9 26
-25 10 -32 7 -49 -16z"/>
<path d="M3135 2800 c10 -11 20 -18 23 -15 7 6 -18 35 -31 35 -5 0 -2 -9 8
-20z"/>
<path d="M3712 2799 c2 -16 -2 -23 -10 -21 -8 1 -11 -2 -7 -8 9 -14 108 -80
113 -76 3 3 -61 87 -95 125 -2 3 -2 -6 -1 -20z"/>
<path d="M1581 2784 c-26 -33 -26 -45 -1 -74 14 -16 17 -27 10 -35 -23 -28 6
-22 44 8 23 18 69 50 104 71 34 21 62 39 62 42 0 2 -40 3 -89 3 -49 -1 -93 1
-99 5 -6 3 -20 -6 -31 -20z"/>
<path d="M1986 2723 c-85 -86 -132 -161 -150 -238 -6 -27 0 -23 51 35 31 36
90 97 130 135 76 73 86 86 54 78 -26 -7 -33 22 -10 43 10 9 19 12 19 6 0 -6
-8 -16 -17 -21 -10 -6 -13 -11 -7 -11 5 0 15 5 22 12 8 8 15 8 27 -2 14 -11
19 -10 38 10 18 18 19 22 5 17 -10 -4 -18 -2 -18 3 0 5 -6 7 -14 4 -8 -3 -17
-1 -21 5 -3 6 -10 11 -14 11 -5 0 -47 -39 -95 -87z"/>
<path d="M3185 2800 c-4 -6 -4 -14 -1 -17 3 -4 6 0 6 8 1 8 7 3 16 -11 l14
-25 -2 24 c-3 27 -22 39 -33 21z"/>
<path d="M3425 2801 c6 -11 -1 -12 -35 -6 -33 6 -41 4 -38 -6 7 -22 57 -46 66
-33 4 7 15 13 26 15 17 4 17 5 -5 24 -12 11 -19 14 -14 6z"/>
<path d="M3470 2789 c14 -11 63 -57 109 -102 49 -48 77 -69 66 -52 -25 43 -56
75 -72 75 -7 0 -13 7 -13 15 0 15 -86 85 -104 85 -6 -1 0 -10 14 -21z"/>
<path d="M3515 2800 c3 -5 8 -10 11 -10 2 0 4 5 4 10 0 6 -5 10 -11 10 -5 0
-7 -4 -4 -10z"/>
<path d="M4305 2790 c2 -11 13 -33 24 -49 12 -16 21 -37 21 -46 0 -10 5 -13
12 -9 7 4 8 3 4 -5 -7 -11 32 -89 86 -168 31 -46 20 -58 -19 -21 -16 15 -23
17 -23 7 0 -21 99 -98 125 -98 6 0 -6 13 -25 29 -23 21 -29 30 -18 30 9 0 20
-4 23 -10 3 -5 10 -10 15 -10 14 0 -22 61 -56 95 -43 41 -66 79 -93 150 -32
87 -87 163 -76 105z"/>
<path d="M1895 2789 c-11 -17 -2 -18 19 -3 17 12 17 14 4 14 -9 0 -20 -5 -23
-11z"/>
<path d="M3250 2782 c0 -12 7 -25 15 -29 27 -10 30 6 7 30 l-22 21 0 -22z"/>
<path d="M3290 2792 c0 -16 25 -40 50 -47 l25 -8 -20 23 c-23 26 -55 44 -55
32z"/>
<path d="M3600 2790 c35 -24 54 -31 30 -11 -14 11 -29 21 -35 21 -5 0 -3 -5 5
-10z"/>
<path d="M2224 2768 l-19 -23 23 19 c21 18 27 26 19 26 -2 0 -12 -10 -23 -22z"/>
<path d="M3578 2748 c41 -46 112 -150 112 -164 0 -12 52 -96 56 -91 8 8 -36
108 -68 156 -31 46 -71 89 -118 126 -14 11 -6 -1 18 -27z"/>
<path d="M1843 2767 c-4 -7 -15 -16 -24 -20 -17 -6 -56 -104 -46 -113 3 -3 24
27 47 66 23 39 40 74 37 77 -3 2 -9 -2 -14 -10z"/>
<path d="M1725 2731 c-27 -16 -70 -46 -94 -68 -39 -35 -43 -41 -32 -61 14 -26
29 -26 96 -3 48 17 50 20 72 82 33 94 33 93 -42 50z"/>
<path d="M3670 2745 c0 -2 27 -23 60 -45 34 -23 76 -55 96 -72 19 -17 37 -29
39 -27 11 12 -53 72 -116 108 -71 41 -79 45 -79 36z"/>
<path d="M2405 2730 c-3 -5 -2 -10 4 -10 5 0 13 5 16 10 3 6 2 10 -4 10 -5 0
-13 -4 -16 -10z"/>
<path d="M3460 2730 c0 -8 43 -55 95 -103 52 -49 92 -80 89 -70 -3 11 4 7 20
-12 14 -16 26 -25 26 -20 0 15 -91 127 -98 120 -3 -3 7 -18 21 -33 15 -16 27
-32 27 -37 0 -5 -40 31 -90 80 -49 49 -90 83 -90 75z"/>
<path d="M3500 2725 c7 -9 15 -13 17 -11 7 7 -7 26 -19 26 -6 0 -6 -6 2 -15z"/>
<path d="M2159 2702 c-40 -42 -149 -179 -149 -188 0 -12 130 127 162 174 33
47 26 55 -13 14z"/>
<path d="M3676 2683 c45 -59 70 -108 85 -167 11 -46 41 -77 54 -56 4 6 14 9
23 8 11 -2 23 11 35 37 l19 40 -48 44 c-53 48 -182 141 -196 141 -4 0 8 -21
28 -47z"/>
<path d="M4244 2696 c5 -37 5 -38 -14 -21 -19 17 -19 17 -11 -11 16 -56 53
-124 68 -124 8 0 11 5 8 10 -3 6 -1 10 5 10 6 0 8 4 5 10 -3 5 -8 26 -11 46
-2 21 -10 44 -17 52 -6 8 -18 27 -25 41 -12 25 -12 24 -8 -13z"/>
<path d="M4270 2719 c1 -16 50 -79 50 -63 0 5 -11 25 -25 44 -14 19 -25 27
-25 19z"/>
<path d="M2017 2628 c-116 -115 -197 -221 -190 -248 4 -16 15 -6 56 53 56 80
117 156 191 235 79 84 44 60 -57 -40z"/>
<path d="M2205 2700 c-10 -11 -13 -20 -8 -20 13 0 38 29 31 35 -3 3 -13 -4
-23 -15z"/>
<path d="M3400 2713 c0 -4 17 -20 38 -34 67 -48 143 -123 185 -182 22 -31 42
-55 45 -52 3 2 11 -3 18 -13 22 -29 17 6 -7 44 -43 70 -280 271 -279 237z"/>
<path d="M3220 2696 c0 -8 112 -67 117 -62 3 2 -22 19 -56 35 -34 17 -61 29
-61 27z"/>
<path d="M3270 2695 c0 -2 14 -11 30 -20 17 -9 30 -11 30 -6 0 6 -9 15 -19 21
-21 11 -41 13 -41 5z"/>
<path d="M1867 2649 c-27 -21 -57 -39 -67 -39 -14 0 -24 -17 -40 -66 -11 -37
-19 -73 -16 -80 3 -7 -4 -24 -15 -37 -24 -32 -25 -49 0 -20 10 12 21 20 24 17
2 -3 7 7 11 21 4 14 11 25 16 25 5 0 7 -7 3 -16 -4 -11 -2 -15 7 -12 7 2 21
26 30 54 18 52 59 134 86 172 22 30 17 28 -39 -19z"/>
<path d="M2236 2670 c-29 -35 -107 -171 -121 -212 -17 -50 -7 -38 44 51 19 33
56 85 83 115 26 30 48 56 48 58 0 11 -43 2 -54 -12z"/>
<path d="M2252 2610 c-110 -127 -164 -249 -133 -299 6 -9 2 -34 -10 -69 -22
-65 -18 -80 8 -27 23 49 38 45 38 -9 0 -24 3 -47 8 -52 4 -4 7 -2 7 4 0 7 10
35 23 63 18 42 30 55 62 70 37 16 38 18 13 18 -15 1 -40 -10 -57 -25 -17 -14
-31 -22 -31 -17 0 12 39 47 70 63 l25 13 -28 10 c-37 12 -34 25 6 19 32 -5 32
-5 13 16 -31 35 -17 124 33 218 23 41 41 77 41 80 0 17 -29 -8 -88 -76z"/>
<path d="M3340 2670 c0 -12 12 -26 30 -35 32 -17 36 -11 20 29 -12 32 -50 36
-50 6z"/>
<path d="M2052 2615 c-103 -112 -212 -278 -212 -321 0 -8 -4 -14 -8 -14 -9 0
-36 -69 -29 -76 2 -2 22 35 43 83 37 84 105 185 215 321 27 34 48 62 46 62 -3
0 -27 -25 -55 -55z"/>
<path d="M2177 2648 c-32 -24 -51 -58 -78 -140 -27 -84 -23 -116 5 -43 13 33
43 91 66 128 23 37 41 69 39 72 -2 2 -17 -6 -32 -17z"/>
<path d="M3411 2653 c1 -35 15 -52 94 -110 44 -33 99 -82 123 -109 51 -57 46
-46 -19 51 -43 65 -80 103 -155 162 -35 27 -44 29 -43 6z"/>
<path d="M4192 2598 c18 -34 39 -64 46 -66 15 -5 0 34 -37 91 -38 60 -45 43
-9 -25z"/>
<path d="M1265 2640 c-3 -5 -1 -10 4 -10 6 0 11 5 11 10 0 6 -2 10 -4 10 -3 0
-8 -4 -11 -10z"/>
<path d="M3364 2611 c11 -11 23 -21 28 -21 14 0 -1 19 -25 31 -22 12 -22 12
-3 -10z"/>
<path d="M3880 2615 c0 -9 23 -40 51 -68 44 -44 48 -46 25 -14 -25 35 -24 51
2 25 9 -9 12 -9 12 0 0 6 -20 25 -45 42 -35 24 -45 28 -45 15z"/>
<path d="M4447 2613 c-4 -3 -7 -10 -7 -14 0 -13 67 -79 79 -79 17 0 13 17 -6
24 -15 6 -15 8 -3 16 11 7 12 10 2 10 -7 0 -11 4 -8 9 3 5 -5 16 -19 25 -28
18 -29 19 -38 9z"/>
<path d="M1253 2558 c-51 -70 -63 -100 -62 -151 l1 -42 8 35 c11 43 66 158 88
183 8 9 13 20 9 23 -3 3 -23 -18 -44 -48z"/>
<path d="M1688 2581 c-58 -20 -69 -30 -40 -38 21 -5 20 -7 -14 -49 -38 -46
-36 -59 3 -22 21 20 20 17 -7 -37 -16 -32 -37 -66 -46 -77 -10 -10 -15 -21
-11 -24 5 -6 28 17 61 61 11 15 15 16 16 5 0 -26 25 20 59 109 17 46 30 85 29
86 -2 1 -24 -5 -50 -14z"/>
<path d="M2686 2584 c-5 -12 -2 -15 10 -10 8 3 20 6 25 6 6 0 7 5 4 10 -10 15
-32 12 -39 -6z"/>
<path d="M3367 2548 c7 -55 10 -57 23 -22 12 29 4 54 -17 61 -8 3 -9 -10 -6
-39z"/>
<path d="M2058 2533 c-46 -48 -118 -167 -118 -194 1 -8 11 4 23 26 l22 40 5
-60 6 -60 8 38 c6 26 11 35 17 26 9 -16 21 11 51 121 11 41 24 83 30 93 14 26
6 21 -44 -30z"/>
<path d="M3481 2517 c37 -37 79 -92 99 -130 37 -71 56 -86 46 -37 -3 19 -2 29
4 25 15 -10 -1 26 -29 63 -27 36 -156 142 -173 142 -6 0 18 -29 53 -63z"/>
<path d="M2877 2563 c-4 -3 -7 -11 -7 -17 0 -6 5 -5 12 2 6 6 9 14 7 17 -3 3
-9 2 -12 -2z"/>
<path d="M2577 2544 c-16 -9 -27 -18 -24 -20 6 -7 54 13 62 25 9 15 -5 13 -38
-5z"/>
<path d="M4184 2510 c3 -24 10 -48 16 -54 5 -5 10 -15 10 -20 0 -6 -16 6 -36
28 -43 47 -55 41 -20 -11 28 -41 34 -62 12 -44 -12 10 -13 5 -9 -31 l5 -43
-27 30 c-27 31 -30 22 -9 -30 7 -18 6 -18 -9 -6 -13 10 -17 11 -17 1 0 -9 -6
-7 -20 5 -19 18 -19 17 0 -23 26 -53 25 -67 -2 -40 -25 25 -36 11 -18 -23 8
-15 9 -19 1 -15 -6 4 -11 3 -11 -3 0 -6 -7 -8 -16 -4 -14 5 -15 3 -5 -16 7
-12 9 -26 6 -31 -6 -10 42 -87 68 -109 25 -20 39 16 21 54 l-15 30 20 -22 c20
-24 37 -32 25 -12 -3 6 0 15 7 20 11 6 11 11 1 21 -6 6 -12 19 -12 28 0 12 2
13 9 1 5 -7 14 -10 20 -6 9 5 8 13 -4 31 -18 28 -37 74 -30 74 3 0 14 -19 26
-42 12 -24 24 -37 26 -30 3 6 9 9 14 6 10 -6 5 42 -8 91 -5 17 -3 16 15 -5 21
-25 21 -25 22 -3 0 12 -4 25 -10 28 -14 9 -12 25 3 23 11 -3 13 37 4 97 -3 24
-25 64 -45 84 -12 13 -14 9 -8 -29z m46 -100 c0 -5 -2 -10 -4 -10 -3 0 -8 5
-11 10 -3 6 -1 10 4 10 6 0 11 -4 11 -10z"/>
<path d="M1965 2456 c-54 -84 -54 -101 0 -23 25 38 44 71 41 74 -3 3 -21 -20
-41 -51z"/>
<path d="M3730 2451 c0 -5 5 -13 10 -16 6 -3 10 -2 10 4 0 5 -4 13 -10 16 -5
3 -10 2 -10 -4z"/>
<path d="M4420 2453 c0 -14 67 -73 82 -73 7 0 8 3 3 8 -6 4 -27 23 -47 41 -21
19 -38 30 -38 24z"/>
<path d="M1261 2414 c0 -11 3 -14 6 -6 3 7 2 16 -1 19 -3 4 -6 -2 -5 -13z"/>
<path d="M1552 2410 c-7 -11 -9 -20 -4 -20 4 0 13 9 20 20 7 11 9 20 4 20 -4
0 -13 -9 -20 -20z"/>
<path d="M2071 2384 c0 -11 3 -14 6 -6 3 7 2 16 -1 19 -3 4 -6 -2 -5 -13z"/>
<path d="M1509 2343 c-13 -21 -26 -40 -30 -43 -3 -3 -16 -23 -27 -45 -33 -62
-45 -76 -37 -42 4 21 3 27 -6 21 -9 -5 -10 -2 -6 9 3 8 9 33 12 54 7 37 6 37
-9 16 -9 -12 -25 -42 -35 -66 -20 -47 -41 -69 -41 -43 0 8 4 16 9 18 10 4 23
108 13 108 -4 0 -18 -17 -31 -38 -21 -31 -25 -48 -24 -111 1 -40 6 -78 12 -84
8 -8 11 -2 11 21 0 18 4 32 9 32 5 0 13 9 16 20 11 33 20 23 23 -27 3 -50 21
-96 22 -58 0 16 2 17 9 5 5 -8 11 -26 13 -40 1 -14 8 -30 13 -36 14 -17 26 4
19 36 -5 22 -4 23 8 9 13 -16 15 -15 35 1 19 15 44 90 30 90 -3 0 -15 -16 -27
-36 -12 -19 -25 -33 -27 -30 -3 3 2 16 10 30 11 16 13 26 5 28 -8 3 -7 10 2
27 6 13 10 34 7 47 -2 13 -1 25 2 26 3 2 14 18 24 37 14 27 15 32 2 21 -21
-17 -19 -4 6 37 12 19 19 36 16 39 -2 3 -15 -12 -28 -33z m-35 -138 c-4 -8 -8
-15 -10 -15 -2 0 -4 7 -4 15 0 8 4 15 10 15 5 0 7 -7 4 -15z"/>
<path d="M1640 2365 c0 -8 2 -15 4 -15 2 0 6 7 10 15 3 8 1 15 -4 15 -6 0 -10
-7 -10 -15z"/>
<path d="M4485 2360 c3 -5 11 -10 16 -10 6 0 7 5 4 10 -3 6 -11 10 -16 10 -6
0 -7 -4 -4 -10z"/>
<path d="M1286 2351 c-4 -7 -5 -15 -2 -18 9 -9 19 4 14 18 -4 11 -6 11 -12 0z"/>
<path d="M2771 2310 c0 -14 4 -32 9 -40 9 -13 10 -13 9 0 -1 8 -5 26 -9 40
l-8 25 -1 -25z"/>
<path d="M1777 2275 c-11 -25 -17 -50 -15 -57 3 -7 13 8 22 34 24 61 17 81 -7
23z"/>
<path d="M4485 2290 c-3 -6 1 -7 9 -4 18 7 21 14 7 14 -6 0 -13 -4 -16 -10z"/>
<path d="M1737 2273 c-4 -3 -7 -11 -7 -17 0 -6 5 -5 12 2 6 6 9 14 7 17 -3 3
-9 2 -12 -2z"/>
<path d="M2249 2270 c-10 -6 -27 -26 -39 -47 -23 -40 -16 -37 43 16 38 35 35
54 -4 31z"/>
<path d="M3570 2244 c0 -16 5 -36 10 -44 6 -10 7 -2 3 25 -7 49 -13 58 -13 19z"/>
<path d="M4460 2259 c0 -5 5 -7 10 -4 6 3 10 8 10 11 0 2 -4 4 -10 4 -5 0 -10
-5 -10 -11z"/>
<path d="M2391 2204 c-12 -19 -21 -40 -21 -46 0 -24 -33 -128 -41 -128 -4 0
-4 15 1 33 10 39 19 117 14 117 -2 0 -12 -17 -23 -37 -11 -21 -20 -34 -21 -30
0 16 28 73 43 86 10 7 17 18 17 24 0 5 -10 2 -22 -9 -21 -19 -21 -19 -15 1 4
11 -13 -1 -38 -28 -25 -27 -45 -44 -45 -38 0 6 8 19 18 29 21 21 35 52 24 52
-4 0 -20 -13 -37 -28 -26 -23 -30 -35 -32 -82 -2 -53 -1 -54 14 -32 16 22 33
29 33 13 0 -4 -12 -26 -26 -47 -19 -28 -31 -64 -40 -124 -7 -47 -17 -97 -23
-112 -16 -43 6 -34 25 10 9 20 17 69 18 107 3 92 3 92 21 99 12 4 15 0 14 -17
-1 -12 -1 -40 0 -62 2 -48 15 -32 26 32 8 53 35 80 35 36 0 -16 -4 -33 -10
-39 -14 -14 -21 -86 -10 -104 8 -12 10 -12 10 -1 0 11 3 11 15 1 13 -11 15 -8
15 18 0 36 15 50 25 24 16 -39 13 -78 -10 -149 -14 -42 -26 -87 -26 -102 -1
-16 -6 -4 -14 29 -11 49 -13 52 -19 28 -4 -14 -16 -28 -27 -31 -13 -4 -19 -14
-19 -33 0 -50 -16 -2 -20 61 -1 15 -6 10 -22 -19 -11 -22 -27 -46 -34 -54 -19
-18 -18 -36 2 -28 8 3 12 2 9 -4 -3 -6 -1 -10 6 -10 8 0 9 -10 5 -32 -8 -41
-26 -61 -26 -29 0 20 -2 21 -15 11 -13 -11 -15 -6 -15 34 0 42 -2 46 -18 37
-12 -6 -23 -5 -34 3 -16 12 -16 15 0 59 22 58 32 68 32 34 0 -15 4 -27 10 -27
12 0 24 65 15 80 -3 6 -9 53 -11 104 -5 81 -2 99 15 132 20 36 21 83 4 134
-10 32 -32 -36 -33 -100 0 -56 -5 -73 -32 -117 -47 -74 -62 -77 -53 -11 6 51
6 52 -10 30 -9 -12 -21 -20 -26 -16 -5 3 -23 -6 -40 -20 -17 -14 -34 -26 -39
-26 -8 0 5 74 16 92 3 4 1 8 -4 8 -10 0 -92 -85 -92 -95 0 -3 4 -4 9 -1 24 15
-6 -38 -33 -58 -53 -39 -63 -40 -23 -2 29 27 37 41 32 56 -8 26 3 80 16 80 6
0 7 -10 3 -22 -17 -57 7 -5 31 67 15 44 34 91 42 103 8 13 13 26 10 28 -2 3
-19 -18 -37 -46 -18 -28 -45 -59 -61 -70 -15 -11 -31 -30 -34 -41 -4 -11 -13
-18 -20 -16 -7 3 -18 -5 -25 -19 -33 -60 -27 -2 9 89 14 35 14 47 1 47 -5 0
-10 -12 -10 -27 0 -19 -16 -45 -50 -83 -28 -30 -48 -60 -46 -67 6 -15 -50 -73
-70 -73 -20 0 -17 23 6 48 11 12 20 25 20 29 0 5 7 19 16 32 9 13 18 41 20 64
l3 41 -25 -30 -25 -29 16 32 c22 46 19 54 -12 37 -41 -21 -45 -18 -28 22 18
45 18 45 0 38 -32 -13 -45 -123 -17 -152 7 -8 10 -18 7 -23 -9 -13 9 -11 23 3
17 17 15 3 -8 -41 -10 -21 -26 -41 -35 -44 -18 -7 -18 -6 -5 27 12 31 1 33
-31 5 -20 -17 -25 -18 -27 -5 -2 8 -9 13 -18 9 -9 -3 -14 1 -14 12 0 11 -5 15
-15 11 -18 -7 -55 13 -55 30 0 7 -10 9 -25 6 -18 -3 -25 0 -25 11 0 8 -12 19
-27 24 -21 7 -31 5 -45 -9 -21 -21 -23 -37 -5 -44 15 -6 21 -51 7 -59 -23 -14
-5 -20 68 -23 76 -2 126 -17 116 -33 -3 -5 16 -14 41 -21 31 -8 52 -21 62 -38
12 -21 21 -25 49 -22 28 4 33 1 28 -12 -5 -12 0 -16 19 -16 16 0 26 -7 30 -20
4 -14 14 -20 35 -20 35 0 102 -26 102 -40 0 -5 6 -7 14 -4 7 3 16 -2 20 -12 5
-13 2 -15 -14 -10 -59 18 -64 18 -32 -3 19 -12 41 -21 50 -20 46 4 53 0 46
-28 l-7 -28 22 20 22 19 -11 -29 c-12 -31 -7 -39 28 -50 15 -4 24 -2 28 9 3 9
10 16 16 16 5 0 6 -5 3 -10 -3 -6 2 -13 12 -17 23 -9 45 -30 58 -57 6 -11 19
-23 30 -26 34 -9 65 -34 65 -52 0 -10 5 -18 10 -18 6 0 10 -10 9 -22 l0 -23
-10 23 c-5 13 -14 20 -20 16 -6 -3 -16 0 -21 7 -6 10 -7 6 -2 -11 3 -14 12
-32 19 -40 24 -30 55 -107 55 -139 0 -18 4 -30 9 -26 6 3 15 -3 21 -12 9 -15
10 -13 5 11 -5 24 -3 28 11 22 10 -4 21 -1 26 6 6 9 10 7 14 -10 4 -14 12 -21
20 -18 10 4 14 -4 14 -31 0 -35 1 -36 15 -17 14 18 15 15 11 -31 -2 -27 -2
-41 1 -30 9 45 12 47 39 20 18 -18 24 -33 21 -53 -4 -26 -4 -26 -12 -4 -12 36
-28 26 -20 -14 8 -44 26 -85 34 -79 4 2 13 -10 20 -26 8 -19 18 -28 27 -25 9
3 16 -4 20 -19 3 -14 10 -25 15 -25 5 0 9 -7 9 -17 0 -9 3 -13 6 -10 9 8 -28
137 -37 131 -13 -8 -20 15 -10 33 9 16 11 15 20 -9 6 -16 17 -28 26 -28 8 0
21 -11 27 -25 6 -14 19 -25 30 -25 10 0 32 -19 49 -42 24 -33 30 -37 24 -18
l-7 25 17 -23 c12 -16 14 -32 10 -53 -5 -22 -4 -29 4 -25 6 4 11 0 11 -11 0
-16 1 -16 16 -1 13 13 14 22 6 49 -6 19 -13 61 -17 94 -8 78 -15 101 -25 85
-4 -7 -10 6 -14 34 -4 25 -12 49 -18 52 -7 5 -9 1 -5 -9 3 -9 2 -19 -4 -22
-10 -7 -39 18 -39 34 0 6 -7 11 -15 11 -9 0 -19 8 -22 18 -4 9 -9 19 -12 22
-17 14 -51 91 -51 113 0 32 -16 43 -28 21 -16 -29 -32 -5 -32 47 0 52 -5 59
-25 32 -12 -16 -14 -13 -24 24 -8 29 -8 49 -1 68 6 15 8 36 5 45 -3 10 -1 21
5 25 6 4 10 -7 10 -29 0 -35 13 -48 23 -23 3 6 6 0 6 -15 1 -16 5 -28 10 -28
14 0 4 69 -13 86 -9 8 -16 23 -16 32 0 12 -3 13 -8 5 -5 -8 -17 21 -30 74 -12
47 -20 89 -17 92 3 3 8 -5 12 -17 6 -23 23 -31 23 -11 0 8 5 8 15 -1 19 -15
19 -13 0 40 -17 48 -12 67 6 26 9 -19 15 -23 20 -14 6 9 13 2 23 -22 8 -19 15
-30 16 -24 0 17 -18 106 -26 127 -6 16 -3 18 17 15 30 -4 66 -73 75 -142 5
-46 5 -48 -18 -41 -13 4 -26 13 -30 19 -4 6 -7 -2 -6 -19 2 -35 20 -52 29 -28
5 15 8 14 27 -5 23 -23 42 -29 42 -13 0 6 -4 13 -10 16 -5 3 -10 13 -10 22 0
13 3 13 15 3 12 -10 11 -1 -5 35 -11 27 -20 55 -18 64 1 9 -1 22 -5 29 -5 6
-5 12 -1 12 9 0 50 -45 57 -62 4 -10 6 -10 6 -1 1 7 -14 32 -32 56 -52 68 -97
162 -97 202 0 20 -5 46 -11 58 -5 12 10 0 35 -26 l45 -48 3 37 3 37 30 -31 30
-31 0 32 c0 26 5 33 23 35 12 2 22 -2 22 -8 0 -7 8 -9 20 -5 13 4 20 2 20 -6
0 -7 2 -10 5 -8 6 7 -14 141 -24 153 -5 6 -5 20 0 31 4 11 8 29 8 40 0 17 -2
16 -12 -5 -6 -14 -17 -31 -24 -38 -7 -7 -13 -23 -13 -34 0 -12 -3 -18 -7 -15
-3 4 -6 26 -6 49 0 40 0 39 -11 -17 l-12 -60 -18 45 -19 45 -11 -35 -10 -35
-4 35 c-5 49 -19 59 -32 24 -9 -22 -13 -25 -20 -14 -8 13 -12 12 -25 -5 -15
-19 -16 -18 -9 14 7 39 -11 35 -26 -5 -9 -23 -30 -34 -30 -16 0 5 11 41 24 80
14 40 23 72 21 72 -1 0 -12 -16 -24 -36z m-71 -8 c0 -3 -4 -8 -10 -11 -5 -3
-10 -1 -10 4 0 6 5 11 10 11 6 0 10 -2 10 -4z m-20 -39 c0 -2 -10 -12 -22 -23
l-23 -19 19 23 c18 21 26 27 26 19z m-570 -272 c0 -8 5 -15 11 -15 8 0 9 -11
5 -32 -8 -42 -13 -45 -30 -22 -8 10 -23 19 -33 20 -55 3 -63 5 -63 14 0 5 12
17 26 26 22 15 27 15 34 3 7 -11 10 -10 16 4 8 21 34 23 34 2z m686 -112 c-2
-2 -10 3 -18 11 -10 9 -13 26 -10 48 l6 33 13 -44 c7 -25 11 -46 9 -48z m-616
17 c-6 -11 -16 -18 -21 -14 -6 3 -3 12 8 20 24 18 26 17 13 -6z m46 -14 c-4
-17 -12 -24 -26 -23 -25 2 -25 5 2 34 25 27 33 24 24 -11z m55 -23 c-8 -15
-10 -15 -11 -2 0 17 10 32 18 25 2 -3 -1 -13 -7 -23z m-30 -16 c-8 -8 -11 -7
-11 4 0 9 3 19 7 23 4 4 9 2 11 -4 3 -7 -1 -17 -7 -23z m82 -4 c-34 -26 -39
-12 -10 25 8 11 12 11 18 0 6 -8 2 -18 -8 -25z m106 -14 c-12 -23 -49 -45 -49
-29 0 6 7 27 16 48 14 35 16 36 29 18 10 -13 11 -24 4 -37z m-63 -14 c-4 -14
-11 -25 -16 -25 -13 0 -13 12 1 47 13 32 24 15 15 -22z m-86 16 c0 -5 -7 -14
-15 -21 -12 -10 -15 -10 -15 2 0 8 3 18 7 21 9 10 23 9 23 -2z m144 -55 c-6
-16 -24 -23 -24 -8 0 10 22 33 27 28 2 -2 1 -11 -3 -20z m156 -93 c-11 -17
-11 -17 -6 0 3 10 6 24 7 30 0 9 2 9 5 0 3 -7 0 -20 -6 -30z m27 -28 c-21 -33
-37 -44 -37 -26 0 11 42 61 52 61 4 0 -3 -16 -15 -35z m-267 -10 c0 -7 -6 -18
-14 -24 -12 -10 -17 -9 -24 6 -5 10 -7 23 -5 29 5 15 43 5 43 -11z m300 5 c0
-5 7 -7 15 -4 11 5 15 -1 15 -17 -1 -26 -31 -69 -49 -69 -12 0 -16 82 -4 93
10 10 23 8 23 -3z m61 -121 c8 -21 7 -34 -8 -60 l-18 -34 -5 60 c-3 33 0 68 5
78 10 17 10 17 13 0 2 -10 8 -30 13 -44z m-127 -140 c7 -36 -2 -58 -15 -38
-11 18 -11 69 0 69 5 0 11 -14 15 -31z m236 -330 c0 -5 -4 -9 -8 -9 -5 0 -9 7
-9 15 0 8 4 12 9 9 4 -3 8 -9 8 -15z"/>
<path d="M3600 2231 c0 -7 5 -21 10 -32 6 -11 8 -40 4 -70 l-7 -51 -22 24
c-11 13 -26 32 -33 43 -6 11 -12 15 -12 8 0 -6 17 -33 37 -60 20 -26 49 -72
65 -102 17 -32 28 -45 28 -33 0 15 5 19 20 15 24 -6 24 -5 4 58 -9 27 -14 52
-11 55 3 3 11 -12 17 -32 12 -35 14 -37 21 -16 6 16 2 34 -12 62 -26 49 -42
62 -33 26 11 -46 -3 -27 -25 33 -20 56 -51 99 -51 72z"/>
<path d="M4440 2185 c0 -11 -7 -12 -32 -4 -43 12 -47 4 -7 -16 44 -23 141 -11
113 14 -5 5 -24 11 -41 14 -25 5 -33 3 -33 -8z"/>
<path d="M3900 2179 c0 -7 8 -26 19 -43 17 -29 37 -106 27 -106 -2 0 -13 14
-24 32 l-20 31 0 -39 c0 -41 27 -134 39 -134 4 0 9 6 12 13 3 9 7 9 18 0 12
-10 18 -6 34 22 13 26 21 32 31 25 19 -16 24 11 6 38 -8 12 -19 22 -26 22 -6
1 -33 34 -60 75 -50 77 -56 83 -56 64z"/>
<path d="M4000 2138 c0 -20 73 -143 78 -130 2 6 10 12 18 12 19 0 5 28 -43 88
-34 42 -53 53 -53 30z"/>
<path d="M4420 2109 c0 -11 51 -11 68 0 9 5 -1 8 -27 8 -23 0 -41 -4 -41 -8z"/>
<path d="M4410 2080 c0 -5 9 -10 21 -10 11 0 17 5 14 10 -3 6 -13 10 -21 10
-8 0 -14 -4 -14 -10z"/>
<path d="M4319 2067 c5 -5 24 -7 42 -5 33 3 33 4 -8 8 -23 3 -39 2 -34 -3z"/>
<path d="M3551 2040 c-1 -14 8 -38 19 -55 20 -30 28 -20 11 13 -5 9 -14 28
-19 42 l-11 25 0 -25z"/>
<path d="M4253 1996 c6 -15 -3 -20 -30 -17 -7 1 -13 -8 -13 -20 0 -15 -4 -19
-16 -15 -12 5 -15 2 -10 -9 5 -13 0 -15 -28 -9 -32 5 -34 4 -41 -25 -7 -33
-15 -37 -46 -21 -15 9 -19 7 -19 -7 0 -10 -5 -25 -10 -33 -9 -13 -12 -12 -25
4 -14 19 -15 18 -15 -14 l0 -33 -24 22 -25 23 6 -22 c5 -20 3 -22 -15 -18 -14
4 -22 2 -22 -7 0 -8 -8 -11 -20 -8 -16 4 -19 2 -15 -13 4 -11 -4 -1 -16 21
-28 51 -35 31 -14 -41 9 -31 14 -58 11 -61 -2 -3 -15 11 -28 31 -13 20 -26 36
-30 36 -5 0 -8 -21 -8 -46 l0 -46 -20 23 -19 24 -1 -23 c0 -13 7 -37 16 -53
24 -48 9 -45 -27 5 -30 42 -42 49 -45 25 -1 -5 -2 -14 -3 -21 -1 -8 -4 -9 -11
-2 -11 11 -14 71 -5 101 8 26 -27 66 -50 57 -10 -4 -15 0 -15 12 -1 11 -9 37
-20 59 -11 22 -20 47 -20 55 -1 9 -3 10 -6 3 -3 -6 2 -28 10 -48 9 -21 16 -50
16 -66 0 -15 7 -32 16 -37 22 -12 24 -190 2 -206 -18 -14 -31 -45 -30 -71 1
-11 -1 -14 -4 -7 -3 6 -10 12 -16 12 -7 0 -8 -15 -4 -42 7 -40 6 -41 -12 -25
-25 23 -32 21 -32 -8 0 -30 -16 -33 -25 -5 -9 28 -17 25 -43 -16 -12 -19 -26
-33 -31 -30 -12 8 -51 -50 -51 -75 0 -18 -2 -19 -15 -9 -13 11 -15 8 -15 -13
0 -14 -4 -28 -9 -31 -4 -3 -6 -18 -3 -32 4 -23 2 -26 -13 -21 -15 6 -17 2 -13
-33 2 -29 0 -39 -8 -36 -8 3 -15 -10 -19 -35 -4 -21 -11 -39 -16 -39 -4 0 -15
21 -24 48 l-15 47 4 -60 c2 -33 -1 -81 -7 -107 -8 -36 -7 -51 3 -63 17 -21 22
-19 44 14 12 18 25 27 35 23 10 -4 13 -1 9 9 -6 16 29 66 39 55 3 -3 13 3 20
14 10 15 21 19 35 14 18 -5 20 -3 16 20 -3 14 -1 26 4 26 5 0 4 9 -2 19 -5 11
-10 29 -10 40 0 17 6 21 31 21 24 0 30 4 25 15 -4 11 3 17 24 22 22 4 30 11
30 26 0 24 48 90 60 82 15 -10 41 7 35 24 -5 17 49 56 65 46 4 -3 13 2 20 10
10 12 15 12 36 -2 28 -18 32 -8 7 19 -15 17 -15 18 0 18 10 0 17 5 17 10 0 6
7 10 15 10 8 0 24 9 35 20 11 11 27 20 35 20 9 0 12 6 8 17 -5 12 -2 15 10 10
12 -5 17 -1 17 13 0 14 5 18 17 13 13 -5 15 -2 10 11 -6 15 -3 17 13 13 19 -5
21 -2 15 23 -6 28 -5 29 30 26 19 -2 38 -6 42 -10 14 -13 20 -5 15 21 -5 27
-5 27 21 10 25 -16 26 -16 32 3 4 11 11 20 16 20 5 0 9 6 9 13 0 7 14 21 30
30 17 10 30 26 30 35 0 12 3 13 12 4 19 -19 26 -14 20 13 -3 18 0 25 12 25 10
0 16 8 16 21 0 21 1 21 26 4 25 -16 26 -16 20 3 -4 11 0 24 9 32 8 7 15 21 15
31 0 11 7 19 15 19 9 0 12 6 9 15 -4 9 0 15 10 15 24 0 19 15 -9 30 -14 7 -25
17 -25 21 0 5 -10 13 -22 20 -18 10 -20 9 -15 -5z m-593 -251 c0 -25 -5 -45
-10 -45 -6 0 -10 19 -8 45 4 58 18 58 18 0z"/>
<path d="M3870 1968 c0 -9 9 -26 20 -39 l21 -24 -17 35 c-21 43 -24 47 -24 28z"/>
<path d="M3810 1955 c0 -8 5 -15 10 -15 6 0 10 7 10 15 0 8 -4 15 -10 15 -5 0
-10 -7 -10 -15z"/>
<path d="M3830 1896 c0 -22 3 -27 11 -19 8 8 8 16 0 30 -9 16 -10 14 -11 -11z"/>
<path d="M3696 1890 c3 -14 8 -51 11 -83 5 -56 23 -90 23 -45 1 21 2 22 14 6
24 -33 25 -19 2 30 -13 26 -31 63 -40 82 -11 23 -14 26 -10 10z"/>
<path d="M2521 1854 c0 -11 3 -14 6 -6 3 7 2 16 -1 19 -3 4 -6 -2 -5 -13z"/>
<path d="M2802 1716 c-29 -57 -42 -95 -42 -124 0 -23 5 -42 10 -42 6 0 10 -11
10 -25 0 -22 3 -24 19 -15 18 9 21 5 33 -36 14 -48 34 -60 31 -18 -1 13 2 24
7 24 16 0 32 70 25 111 -11 62 -29 42 -35 -37 l-5 -69 -14 39 c-8 24 -11 56
-7 85 5 42 4 44 -9 27 -8 -11 -15 -31 -15 -45 0 -14 -5 -33 -10 -41 -28 -44 5
151 37 213 8 16 13 31 11 33 -2 2 -23 -34 -46 -80z"/>
<path d="M3500 1720 c0 -5 -7 -10 -15 -10 -8 0 -15 -9 -15 -20 0 -11 -4 -20
-10 -20 -5 0 -10 5 -10 11 0 5 -4 7 -10 4 -5 -3 -9 -21 -8 -40 1 -19 -2 -38
-5 -42 -4 -3 -7 5 -7 18 0 14 -6 33 -13 44 -13 16 -15 14 -21 -24 -7 -44 -1
-65 15 -56 5 4 9 -8 9 -24 0 -17 -4 -31 -9 -31 -13 0 -44 -85 -38 -102 3 -8 9
-3 15 14 8 20 16 26 28 21 14 -5 16 -1 12 21 -4 20 -2 24 5 17 19 -19 29 -12
22 16 -6 24 -5 25 11 12 16 -13 17 -12 12 9 -5 17 -2 22 14 22 13 0 18 5 15
14 -3 8 -1 16 6 19 6 2 10 18 9 36 -1 18 1 30 6 27 4 -2 14 -1 22 4 11 7 11
13 0 39 -12 29 -40 44 -40 21z"/>
<path d="M1610 1700 c0 -5 4 -10 9 -10 6 0 13 5 16 10 3 6 -1 10 -9 10 -9 0
-16 -4 -16 -10z"/>
<path d="M4340 1693 c0 -12 11 -35 25 -50 l25 -28 -6 30 c-4 17 -15 39 -25 50
-19 19 -19 19 -19 -2z"/>
<path d="M2707 1677 c-4 -15 -12 -25 -17 -22 -5 3 -9 -9 -8 -29 1 -23 7 -36
18 -39 12 -3 20 -20 24 -52 11 -67 19 -48 20 45 1 55 -3 80 -11 80 -6 0 -13
10 -15 23 -3 20 -4 20 -11 -6z"/>
<path d="M3321 1664 c-8 -19 -15 -24 -20 -16 -5 9 -11 5 -19 -13 -13 -29 -38
-33 -45 -7 -3 11 -7 7 -12 -15 -8 -35 -29 -44 -39 -17 -4 9 -4 26 -1 38 6 21
6 21 -9 2 -9 -11 -16 -23 -16 -27 0 -5 -16 -35 -35 -68 -19 -32 -35 -62 -35
-64 0 -15 38 8 55 33 11 16 22 27 26 24 4 -2 19 0 33 6 17 6 27 6 32 -1 4 -6
11 -6 20 2 13 11 14 9 5 -12 -12 -30 -41 -125 -41 -135 0 -3 7 -1 15 6 8 6 14
15 13 18 -3 25 4 53 17 66 8 8 15 22 15 31 0 11 6 15 18 11 15 -5 17 0 13 40
l-3 46 23 -23 24 -24 3 25 c1 14 -3 42 -11 63 l-13 39 -13 -28z"/>
<path d="M3046 1602 c-14 -45 -23 -61 -34 -57 -7 3 -15 5 -18 5 -2 0 -7 18
-10 40 -4 22 -10 40 -14 40 -5 0 -20 -21 -34 -46 -22 -39 -24 -48 -12 -60 12
-11 15 -10 20 9 7 21 8 20 23 -10 14 -28 20 -32 42 -26 30 7 52 32 46 50 -2 7
1 16 8 20 8 5 10 24 7 53 l-5 45 -19 -63z"/>
<path d="M4324 1625 c51 -46 71 -45 23 0 -20 19 -43 35 -50 35 -6 -1 6 -16 27
-35z"/>
<path d="M4252 1633 c17 -20 30 -53 22 -53 -3 0 -17 9 -31 20 -27 21 -48 27
-38 10 3 -6 3 -19 0 -30 -7 -22 -23 -17 -62 20 -27 25 -28 23 -8 -23 18 -43
19 -50 5 -42 -5 3 -10 3 -10 -2 0 -17 16 -30 42 -36 15 -4 33 -14 42 -22 21
-21 25 -19 20 9 -4 23 -2 24 26 16 23 -7 30 -5 30 6 0 8 -3 14 -8 14 -4 0 -13
9 -20 20 -12 20 -12 21 17 5 36 -18 49 -19 33 -3 -7 7 -12 17 -12 23 0 5 4 3
10 -5 5 -8 12 -11 16 -7 4 4 -2 17 -14 30 -12 13 -22 27 -22 32 0 9 -31 34
-44 35 -5 0 -2 -8 6 -17z"/>
<path d="M2610 1633 c1 -5 9 -24 20 -43 23 -41 27 -23 5 20 -15 29 -25 38 -25
23z"/>
<path d="M2683 1562 c0 -12 5 -22 9 -22 11 0 10 12 -2 30 -7 12 -9 10 -7 -8z"/>
<path d="M1525 1560 c-16 -6 -11 -10 25 -20 25 -7 47 -15 50 -19 8 -12 80 -21
80 -10 0 5 -6 9 -14 9 -7 0 -19 7 -27 16 -8 10 -21 13 -36 9 -13 -3 -23 -1
-23 4 0 13 -32 19 -55 11z"/>
<path d="M2403 1545 c-16 -17 -6 -75 11 -69 19 7 48 -32 56 -74 7 -35 8 -35
16 -14 l10 23 27 -21 c15 -12 27 -16 27 -10 0 6 -6 13 -14 16 -8 3 -20 18 -26
34 -7 17 -17 27 -25 23 -9 -3 -17 8 -24 35 -14 50 -41 76 -58 57z"/>
<path d="M2660 1515 c0 -8 4 -15 10 -15 5 0 7 7 4 15 -4 8 -8 15 -10 15 -2 0
-4 -7 -4 -15z"/>
<path d="M4062 1467 c7 -24 16 -36 24 -33 8 3 22 -8 33 -23 22 -31 81 -42 81
-15 0 8 6 14 13 14 6 0 -2 14 -20 29 -17 16 -28 33 -25 37 4 4 1 4 -7 -1 -8
-4 -17 -2 -22 6 -4 7 -11 10 -15 6 -4 -4 2 -21 15 -37 38 -53 13 -50 -39 3
l-49 52 11 -38z"/>
<path d="M1698 1463 c17 -9 32 -20 32 -25 0 -4 5 -8 10 -8 11 0 60 -33 94 -62
20 -18 36 -23 36 -12 0 20 -156 124 -184 123 -17 0 -15 -3 12 -16z"/>
<path d="M2590 1471 c0 -9 30 -24 36 -18 2 1 -6 8 -16 15 -11 7 -20 8 -20 3z"/>
<path d="M3980 1392 c0 -22 29 -64 30 -43 0 11 3 11 15 1 26 -22 25 -6 -1 28
-28 36 -44 41 -44 14z"/>
<path d="M3930 1397 c0 -15 31 -67 40 -67 6 0 8 -10 5 -23 -4 -16 0 -29 14
-42 12 -10 24 -16 27 -13 3 3 -5 15 -17 27 -13 12 -17 21 -11 21 7 0 12 6 12
13 0 13 -69 97 -70 84z"/>
<path d="M2581 1320 c18 -22 34 -38 37 -35 7 6 -47 75 -59 75 -5 0 5 -18 22
-40z"/>
<path d="M3860 1350 c0 -5 5 -10 11 -10 5 0 7 5 4 10 -3 6 -8 10 -11 10 -2 0
-4 -4 -4 -10z"/>
<path d="M2802 1315 c0 -16 2 -22 5 -12 2 9 2 23 0 30 -3 6 -5 -1 -5 -18z"/>
<path d="M3021 1324 c0 -11 3 -14 6 -6 3 7 2 16 -1 19 -3 4 -6 -2 -5 -13z"/>
<path d="M3220 1305 c0 -19 4 -35 8 -35 4 0 6 16 4 35 -2 19 -6 35 -8 35 -2 0
-4 -16 -4 -35z"/>
<path d="M1800 1320 c8 -5 20 -10 25 -10 6 0 3 5 -5 10 -8 5 -19 10 -25 10 -5
0 -3 -5 5 -10z"/>
<path d="M2867 1303 c-29 -102 -31 -124 -17 -171 7 -26 12 -64 11 -84 -1 -23
3 -38 10 -38 6 0 9 -6 6 -13 -3 -8 -1 -20 5 -28 9 -14 4 70 -8 135 -4 16 -2
26 2 23 5 -3 7 17 6 44 -2 29 1 56 8 64 7 9 9 26 5 44 -8 37 -22 48 -28 24z"/>
<path d="M2990 1286 c0 -14 5 -26 10 -26 6 0 10 9 10 19 0 11 -4 23 -10 26 -6
4 -10 -5 -10 -19z"/>
<path d="M3905 1290 c10 -11 20 -18 23 -15 7 6 -18 35 -31 35 -5 0 -2 -9 8
-20z"/>
<path d="M1845 1290 c-3 -5 3 -10 15 -10 12 0 18 5 15 10 -3 6 -10 10 -15 10
-5 0 -12 -4 -15 -10z"/>
<path d="M2750 1291 c0 -6 5 -13 10 -16 6 -3 10 1 10 9 0 9 -4 16 -10 16 -5 0
-10 -4 -10 -9z"/>
<path d="M3853 1281 c2 -10 10 -30 20 -44 13 -20 16 -41 12 -94 -2 -37 -2 -59
1 -48 11 43 27 74 35 69 20 -12 7 25 -22 64 -22 30 -26 40 -14 35 12 -4 16 -2
13 7 -2 7 -14 17 -26 21 -18 7 -21 5 -19 -10z"/>
<path d="M1870 1260 c0 -6 7 -13 15 -17 24 -9 27 1 5 15 -13 8 -20 8 -20 2z"/>
<path d="M3744 1187 c9 -37 0 -50 -25 -37 -16 9 -19 7 -19 -13 0 -33 -10 -40
-27 -19 -13 15 -14 13 -9 -20 4 -36 -5 -50 -19 -28 -3 6 -15 10 -26 10 -14 0
-19 -7 -19 -29 0 -33 18 -51 30 -31 4 7 12 10 18 6 5 -3 13 1 16 10 4 10 12
14 22 10 8 -3 22 1 30 9 10 9 25 12 46 8 27 -5 30 -4 24 14 -4 13 2 26 19 42
15 12 25 16 23 9 -3 -14 2 -18 27 -18 22 0 18 43 -6 69 -17 18 -29 22 -54 18
-18 -3 -38 0 -45 6 -10 10 -11 6 -6 -16z"/>
<path d="M2121 1110 c0 -8 4 -24 9 -35 5 -13 9 -14 9 -5 0 8 -4 24 -9 35 -5
13 -9 14 -9 5z"/>
<path d="M3480 1061 c13 -25 33 -28 28 -4 -2 10 -11 19 -21 21 -16 3 -17 1 -7
-17z"/>
<path d="M2151 1044 c0 -11 3 -14 6 -6 3 7 2 16 -1 19 -3 4 -6 -2 -5 -13z"/>
<path d="M3117 960 c3 -30 14 -70 24 -89 10 -18 15 -40 12 -50 -4 -13 -3 -14
5 -1 6 8 8 18 5 24 -4 5 1 7 10 3 23 -9 21 1 -8 48 -14 22 -25 49 -25 61 0 11
-7 29 -15 40 -13 17 -14 14 -8 -36z"/>
<path d="M2910 964 c0 -14 4 -23 10 -19 6 3 10 15 10 26 0 10 -4 19 -10 19 -5
0 -10 -12 -10 -26z"/>
</g>
</svg>
